<svg viewbox = "0 0 37 37" fill = "none" xmlns="http://www.w3.org/2000/svg">
    <title>badge-app-store</title>
    <path d="M26.9039 19.1188C26.9363 16.611 28.2528 14.2945 30.3922 12.981C29.0364 11.0473 26.8469 9.86522 
    24.4843 9.7914C21.9986 9.53084 19.5888 11.2768 18.3221 11.2768C17.0309 11.2768 15.0807 9.81727 12.9806 
    9.86042C10.2174 9.94957 7.7038 11.4804 6.35946 13.8929C3.49663 18.8428 5.63205 26.1174 8.3744 30.1184C9.74645
     32.0776 11.35 34.2661 13.4482 34.1885C15.5014 34.1035 16.2682 32.881 18.7466 32.881C21.202 32.881 21.9215 
     34.1885 24.0623 34.1392C26.2655 34.1035 27.6536 32.1713 28.9775 30.1935C29.9633 28.7975 30.7219 27.2546 
     31.2252 25.622C28.6084 24.5167 26.907 21.9562 26.9039 19.1188V19.1188Z" fill="currentColor"></path>
     <path d="M22.8604 7.16005C24.0617 5.71991 24.6535 3.86887 24.5102 2C22.6749 2.1925 20.9796 3.06846 19.7621 
     4.45334C18.5599 5.81971 17.9508 7.60728 18.0691 9.42235C19.929 9.44147 21.6949 8.60765 22.8604 
     7.16005V7.16005Z" fill="currentColor">
     </path>
</svg>