<svg width="179" height="42" fill="none" xmlns="http://www.w3.org/2000/svg"><path fill-rule="evenodd" clip-rule="evenodd" d="M37.36 19.762c.758 6.456-3.164 12.546-9.345 14.51a13.483 13.483 0 0 1-15.96-6.466c-5.251.216-10.02-2.899-11.903-7.69a1.61 1.61 0 0 1 1.393-2.192l7.005-.434-1.739-5.533a4.584 4.584 0 0 1 .805-4.25 4.557 4.557 0 0 1 3.976-1.678c3.806.363 6.333.348 7.582-.045 1.248-.393 3.292-1.813 6.13-4.26a4.546 4.546 0 0 1 7.308 2.093l1.72 5.483 5.894-3.622a1.597 1.597 0 0 1 2.393.992c1.185 4.973-.902 10.23-5.26 13.092ZM19.435 37.657l-3.197-1.531a2.25 2.25 0 0 0-2.968 1.085 2.258 2.258 0 0 0 1.035 2.992l3.2 1.53a2.25 2.25 0 0 0 2.968-1.085 2.258 2.258 0 0 0-1.036-2.992l-.002.001Zm22.319-9.492a2.239 2.239 0 0 0-3.065.854l-1.744 3.093a2.259 2.259 0 0 0 .877 3.02c1.06.602 2.405.25 3.036-.796l1.743-3.093a2.26 2.26 0 0 0-.847-3.078Z" fill="#58CC02"/><path d="M118.572 5.87c-1.517 0-2.706 1.13-2.706 2.587 0 1.428 1.189 2.587 2.706 2.587 1.457 0 2.705-1.16 2.705-2.587 0-1.457-1.248-2.586-2.705-2.586Zm-52.658.15c-1.754 0-3.866 2.17-3.866 5.946v2.2c-1.1-.773-2.616-1.308-4.34-1.308-4.639 0-7.88 3.538-7.88 8.177 0 4.698 3.182 8.176 7.88 8.176 2.378 0 4.4-1.04 5.41-2.23.834 1.25 1.963 1.933 2.766 1.933.565 0 .922-.357.922-1.07V7.09c0-.714-.327-1.07-.892-1.07Zm45.759 0c-1.754 0-3.865 2.17-3.865 5.946V27.04c0 1.1.416 1.576 1.576 1.576h1.606c1.159 0 1.575-.476 1.575-1.576V7.09c0-.714-.327-1.07-.892-1.07Zm47.99 6.332c-.268 0-.565.09-.951.298-1.219.654-1.903.803-2.914.803-1.517 0-2.29-.446-4.906-.446-4.431 0-7.255 2.676-7.255 6.273 0 1.755.832 3.33 2.349 4.58-1.992 1.01-3.182 3.27-3.182 5.5 0 4.133 3.36 6.839 8.326 6.839 5.024 0 8.325-2.706 8.325-6.84 0-2.23-1.189-4.519-3.182-5.5 1.457-1.249 2.349-2.824 2.349-4.579a4.7 4.7 0 0 0-.446-2.051c1.665-.595 2.409-1.933 2.409-3.538 0-.774-.268-1.339-.922-1.339Zm-63.005.506c-4.817 0-8.444 3.39-8.444 8.177 0 4.727 3.627 8.176 8.444 8.176 4.817 0 8.444-3.449 8.444-8.176 0-4.788-3.627-8.177-8.444-8.177Zm36.721 0c-1.903 0-3.895.803-5.144 2.29-.833-1.309-1.963-1.993-2.795-1.993-.565 0-.922.357-.922 1.07v12.816c0 1.1.417 1.576 1.576 1.576h1.606c1.159 0 1.576-.476 1.576-1.576v-5.59c0-1.368.327-2.379.892-3.033.594-.684 1.486-1.04 2.497-1.04 1.071 0 1.873.356 2.409 1.04.505.654.743 1.635.743 3.063v5.56c0 1.16.476 1.576 1.576 1.576h1.605c1.101 0 1.576-.417 1.576-1.576v-5.71c0-3.002-.594-4.846-1.813-6.273-1.22-1.397-3.063-2.2-5.382-2.2Zm36.393 0c-4.816 0-8.444 3.39-8.444 8.177 0 4.727 3.628 8.176 8.444 8.176 4.817 0 8.445-3.449 8.445-8.176 0-4.788-3.628-8.177-8.445-8.177Zm-85.542.595h-1.606c-1.16 0-1.576.475-1.576 1.575v5.53c0 1.517-.297 2.528-.892 3.182-.535.595-1.368.952-2.29.952-.921 0-1.635-.297-2.14-.833-.624-.654-.922-1.635-.922-3.449v-5.382c0-1.16-.476-1.575-1.576-1.575h-1.605c-1.1 0-1.576.416-1.576 1.575v5.828c0 3.033.743 5.144 2.17 6.512 1.19 1.13 2.825 1.843 4.877 1.843 2.051 0 3.835-.862 5.025-2.26.832 1.28 1.962 1.963 2.765 1.963.565 0 .921-.357.921-1.07V15.027c0-1.1-.416-1.575-1.575-1.575Zm35.144 0h-1.605c-1.1 0-1.576.416-1.576 1.575v12.013c0 1.16.476 1.576 1.576 1.576h1.605c1.101 0 1.576-.417 1.576-1.576V15.028c0-1.16-.475-1.575-1.576-1.575Zm31.756 3.3c1.754 0 2.913 1.13 2.913 2.795 0 1.546-1.278 2.795-2.913 2.795-1.606 0-2.914-1.249-2.914-2.795 0-1.665 1.189-2.795 2.914-2.795ZM58.362 24.93c-2.082 0-3.717-1.546-3.717-3.895 0-2.35 1.635-3.895 3.717-3.895 2.051 0 3.686 1.546 3.686 3.895s-1.635 3.895-3.686 3.895Zm38.296 0c-2.23 0-3.627-1.636-3.627-3.895 0-2.26 1.397-3.895 3.627-3.895 2.23 0 3.628 1.635 3.628 3.895s-1.398 3.895-3.628 3.895Zm73.114 0c-2.23 0-3.627-1.636-3.627-3.895 0-2.26 1.397-3.895 3.627-3.895 2.23 0 3.628 1.635 3.628 3.895s-1.398 3.895-3.628 3.895Zm-18.642 7.403c-2.082 0-3.628-1.367-3.628-3.122 0-1.873 1.427-3.122 3.628-3.122 2.2 0 3.627 1.279 3.627 3.122 0 1.725-1.576 3.122-3.627 3.122Z" fill="#58CC02"/></svg>