<svg xmlns="http://www.w3.org/2000/svg" xmlns:xlink="http://www.w3.org/1999/xlink" viewBox="0 0 1080 1080" preserveAspectRatio="xMidYMid meet"><defs><clipPath id="__lottie_element_21976"><rect width="1080" height="1080" x="0" y="0"/></clipPath><clipPath id="__lottie_element_21978"><path d="M0,0 L1080,0 L1080,1080 L0,1080z"/></clipPath><linearGradient id="__lottie_element_21985" spreadMethod="pad" gradientUnits="userSpaceOnUse" x1="31.76099967956543" y1="88.8219985961914" x2="27.378999710083008" y2="75.68299865722656"><stop offset="0%" stop-color="rgb(63,219,1)"/><stop offset="50%" stop-color="rgb(60,210,1)"/><stop offset="100%" stop-color="rgb(58,202,0)"/></linearGradient><g id="__lottie_element_22000"><g clip-path="url(#__lottie_element_22001)" transform="matrix(1,0,0,1,0,0)" opacity="1" style="display:block"><g transform="matrix(1,0,0,1,0,0)" opacity="1" style="display:block"><path fill="rgb(255,255,255)" fill-opacity="1" d="M239.81100463867188,262.5559997558594 C239.81100463867188,262.5559997558594 271.7749938964844,252.625 271.7749938964844,252.625 C277.39300537109375,250.87899780273438 283.4930114746094,253.9759979248047 285.39898681640625,259.5450134277344 C285.39898681640625,259.5450134277344 303.2929992675781,311.8280029296875 303.2929992675781,311.8280029296875 C305.2170104980469,317.45001220703125 302.1929931640625,323.427001953125 296.5369873046875,325.1719970703125 C296.5369873046875,325.1719970703125 264.3609924316406,335.0979919433594 264.3609924316406,335.0979919433594 C258.7170104980469,336.8389892578125 252.60400390625,333.6889953613281 250.70700073242188,328.0679931640625 C250.70700073242188,328.0679931640625 233.06199645996094,275.78900146484375 233.06199645996094,275.78900146484375 C231.1820068359375,270.2200012207031 234.20399475097656,264.2980041503906 239.81100463867188,262.5559997558594z"/></g></g></g><clipPath id="__lottie_element_22001"><path d="M0,0 L1080,0 L1080,1080 L0,1080z"/></clipPath><mask id="__lottie_element_22000_1" mask-type="alpha"><use xlink:href="#__lottie_element_22000"/></mask><clipPath id="__lottie_element_22011"><path d="M0,0 L1080,0 L1080,1080 L0,1080z"/></clipPath><g id="__lottie_element_22017"><g clip-path="url(#__lottie_element_22018)" transform="matrix(1,0,0,1,0,0)" opacity="1" style="display:block"><g transform="matrix(1,0,0,1,0,0)" opacity="1" style="display:block"><path fill="rgb(255,255,255)" fill-opacity="1" d="M342.0790100097656,230.89500427246094 C342.0790100097656,230.89500427246094 374.04400634765625,220.96400451660156 374.04400634765625,220.96400451660156 C379.6619873046875,219.21800231933594 385.7619934082031,222.31500244140625 387.6679992675781,227.88400268554688 C387.6679992675781,227.88400268554688 405.56201171875,280.1679992675781 405.56201171875,280.1679992675781 C407.4859924316406,285.7900085449219 404.46099853515625,291.7659912109375 398.80499267578125,293.510986328125 C398.80499267578125,293.510986328125 366.6300048828125,303.43701171875 366.6300048828125,303.43701171875 C360.9859924316406,305.1780090332031 354.87200927734375,302.02801513671875 352.9750061035156,296.4070129394531 C352.9750061035156,296.4070129394531 335.3299865722656,244.1280059814453 335.3299865722656,244.1280059814453 C333.45001220703125,238.5590057373047 336.47198486328125,232.63699340820312 342.0790100097656,230.89500427246094z"/></g></g></g><clipPath id="__lottie_element_22018"><path d="M0,0 L1080,0 L1080,1080 L0,1080z"/></clipPath><mask id="__lottie_element_22017_1" mask-type="alpha"><use xlink:href="#__lottie_element_22017"/></mask><clipPath id="__lottie_element_22028"><path d="M0,0 L1080,0 L1080,1080 L0,1080z"/></clipPath><linearGradient id="__lottie_element_22040" spreadMethod="pad" gradientUnits="userSpaceOnUse" x1="288.2850036621094" y1="428.75" x2="253.06300354003906" y2="411.10101318359375"><stop offset="0%" stop-color="rgb(63,218,0)"/><stop offset="58%" stop-color="rgb(32,205,16)"/><stop offset="100%" stop-color="rgb(0,192,31)"/></linearGradient><clipPath id="__lottie_element_22042"><path d="M0,0 L1080,0 L1080,1080 L0,1080z"/></clipPath><clipPath id="__lottie_element_22049"><path d="M0,0 L1080,0 L1080,1080 L0,1080z"/></clipPath><linearGradient id="__lottie_element_22055" spreadMethod="pad" gradientUnits="userSpaceOnUse" x1="-26.509000778198242" y1="11.380999565124512" x2="-38.220001220703125" y2="14.267000198364258"><stop offset="0%" stop-color="rgb(148,91,247)"/><stop offset="46%" stop-color="rgb(156,101,251)"/><stop offset="100%" stop-color="rgb(164,111,255)"/></linearGradient><g id="__lottie_element_22059"><g transform="matrix(1,0,0,1,540,540)" opacity="1" style="display:block"><path fill="rgb(166,138,214)" fill-opacity="1" d="M-53,-34.625 C-64,-44 -79.75,-45.25 -84.875,-37 C-93.87999725341797,-22.503000259399414 -143.15899658203125,67.802001953125 -149.75,79.25 C-156.875,91.625 -150.25,109 -136.25,113.625 C-119.73500061035156,119.08100128173828 -51.06700134277344,144.44200134277344 -42,147.5 C-31.25,151.125 -27.125,150.75 -19.375,142.25 C-9.605999946594238,131.53500366210938 32.46200180053711,85.73100280761719 48,69.375 C57.5,59.375 58.75,41.875 42.5,30.25 C20.94700050354004,14.831000328063965 -47.055999755859375,-29.55900001525879 -53,-34.625z"/></g></g><mask id="__lottie_element_22059_1" mask-type="alpha"><use xlink:href="#__lottie_element_22059"/></mask><g id="__lottie_element_22065"><g clip-path="url(#__lottie_element_22066)" transform="matrix(1,0,0,1,0,0)" opacity="1" style="display:block"><g transform="matrix(1,0,0,1,436.76800537109375,604.2030029296875)" opacity="1" style="display:block"><path fill="rgb(255,255,255)" fill-opacity="1" d="M-17.204999923706055,-3.6689999103546143 C-17.204999923706055,-3.6689999103546143 -10.09000015258789,-24.85700035095215 -10.09000015258789,-24.85700035095215 C-8.642999649047852,-31.07699966430664 -0.9760000109672546,-37.22200012207031 4.186999797821045,-34.518001556396484 C19.10700035095215,-26.702999114990234 19.509000778198242,-9.645999908447266 18.479000091552734,1.7280000448226929 C18.479000091552734,1.7280000448226929 17.01099967956543,18.884000778198242 17.01099967956543,18.884000778198242 C16.55500030517578,23.92300033569336 12.668000221252441,26.711999893188477 8.29699993133545,25.135000228881836 C8.29699993133545,25.135000228881836 -7.688000202178955,19.365999221801758 -7.688000202178955,19.365999221801758 C-16.176000595092773,16.30299949645996 -21.14699935913086,4.269999980926514 -17.204999923706055,-3.6689999103546143z"/></g></g></g><clipPath id="__lottie_element_22066"><path d="M0,0 L1080,0 L1080,1080 L0,1080z"/></clipPath><mask id="__lottie_element_22065_1" mask-type="alpha"><use xlink:href="#__lottie_element_22065"/></mask><g id="__lottie_element_22075"><g clip-path="url(#__lottie_element_22076)" transform="matrix(1,0,0,1,0,0)" opacity="1" style="display:block"><g transform="matrix(1,0,0,1,436.76800537109375,604.2030029296875)" opacity="1" style="display:block"><path fill="rgb(255,255,255)" fill-opacity="1" d="M-17.204999923706055,-3.6689999103546143 C-17.204999923706055,-3.6689999103546143 -10.09000015258789,-24.85700035095215 -10.09000015258789,-24.85700035095215 C-8.642999649047852,-31.07699966430664 -0.9760000109672546,-37.22200012207031 4.186999797821045,-34.518001556396484 C19.10700035095215,-26.702999114990234 19.509000778198242,-9.645999908447266 18.479000091552734,1.7280000448226929 C18.479000091552734,1.7280000448226929 17.01099967956543,18.884000778198242 17.01099967956543,18.884000778198242 C16.55500030517578,23.92300033569336 12.668000221252441,26.711999893188477 8.29699993133545,25.135000228881836 C8.29699993133545,25.135000228881836 -7.688000202178955,19.365999221801758 -7.688000202178955,19.365999221801758 C-16.176000595092773,16.30299949645996 -21.14699935913086,4.269999980926514 -17.204999923706055,-3.6689999103546143z"/></g></g></g><clipPath id="__lottie_element_22076"><path d="M0,0 L1080,0 L1080,1080 L0,1080z"/></clipPath><mask id="__lottie_element_22075_1" mask-type="alpha"><use xlink:href="#__lottie_element_22075"/></mask><clipPath id="__lottie_element_22086"><path d="M0,0 L1080,0 L1080,1080 L0,1080z"/></clipPath><g id="__lottie_element_22092"><g clip-path="url(#__lottie_element_22093)" transform="matrix(1,0,0,1,0,0)" opacity="1" style="display:block"><g transform="matrix(1,0,0,1,477.89300537109375,614.7760009765625)" opacity="1" style="display:block"><path fill="rgb(255,255,255)" fill-opacity="1" d="M18.219999313354492,14.076000213623047 C18.219999313354492,14.076000213623047 12.788999557495117,-21.966999053955078 12.788999557495117,-21.966999053955078 C12.418999671936035,-23.631000518798828 9.920000076293945,-30.21299934387207 -1.9839999675750732,-30.489999771118164 C-12.838000297546387,-30.742000579833984 -15.781000137329102,-23.79800033569336 -16.618999481201172,-12.381999969482422 C-16.618999481201172,-12.381999969482422 -18.61400032043457,10.291000366210938 -18.61400032043457,10.291000366210938 C-18.98699951171875,15.36299991607666 -15.762999534606934,20.72100067138672 -11.390999794006348,22.298999786376953 C-11.390999794006348,22.298999786376953 4.986999988555908,28.209999084472656 4.986999988555908,28.209999084472656 C13.366999626159668,31.233999252319336 20.475000381469727,24.209999084472656 18.219999313354492,14.076000213623047z"/></g></g></g><clipPath id="__lottie_element_22093"><path d="M0,0 L1080,0 L1080,1080 L0,1080z"/></clipPath><clipPath id="__lottie_element_22101"><path d="M0,0 L1080,0 L1080,1080 L0,1080z"/></clipPath><mask id="__lottie_element_22092_1" mask-type="alpha"><use xlink:href="#__lottie_element_22092"/></mask><g id="__lottie_element_22109"><g clip-path="url(#__lottie_element_22110)" transform="matrix(1,0,0,1,0,0)" opacity="1" style="display:block"><g transform="matrix(1,0,0,1,477.89300537109375,614.7760009765625)" opacity="1" style="display:block"><path fill="rgb(255,255,255)" fill-opacity="1" d="M18.219999313354492,14.076000213623047 C18.219999313354492,14.076000213623047 12.788999557495117,-21.966999053955078 12.788999557495117,-21.966999053955078 C12.418999671936035,-23.631000518798828 9.920000076293945,-30.21299934387207 -1.9839999675750732,-30.489999771118164 C-12.838000297546387,-30.742000579833984 -15.781000137329102,-23.79800033569336 -16.618999481201172,-12.381999969482422 C-16.618999481201172,-12.381999969482422 -18.61400032043457,10.291000366210938 -18.61400032043457,10.291000366210938 C-18.98699951171875,15.36299991607666 -15.762999534606934,20.72100067138672 -11.390999794006348,22.298999786376953 C-11.390999794006348,22.298999786376953 4.986999988555908,28.209999084472656 4.986999988555908,28.209999084472656 C13.366999626159668,31.233999252319336 20.475000381469727,24.209999084472656 18.219999313354492,14.076000213623047z"/></g></g></g><clipPath id="__lottie_element_22110"><path d="M0,0 L1080,0 L1080,1080 L0,1080z"/></clipPath><mask id="__lottie_element_22109_1" mask-type="alpha"><use xlink:href="#__lottie_element_22109"/></mask><linearGradient id="__lottie_element_22125" spreadMethod="pad" gradientUnits="userSpaceOnUse" x1="-20.93899917602539" y1="71.3759994506836" x2="13.286999702453613" y2="-31.59600067138672"><stop offset="0%" stop-color="rgb(234,187,185)"/><stop offset="6%" stop-color="rgb(245,194,189)"/><stop offset="12%" stop-color="rgb(255,200,193)"/><stop offset="56%" stop-color="rgb(255,200,193)"/><stop offset="88%" stop-color="rgb(255,200,193)"/><stop offset="94%" stop-color="rgb(247,186,182)"/><stop offset="100%" stop-color="rgb(239,173,171)"/></linearGradient><clipPath id="__lottie_element_22127"><path d="M0,0 L1080,0 L1080,1080 L0,1080z"/></clipPath><clipPath id="__lottie_element_22137"><path d="M0,0 L1080,0 L1080,1080 L0,1080z"/></clipPath><clipPath id="__lottie_element_22147"><path d="M0,0 L1080,0 L1080,1080 L0,1080z"/></clipPath><clipPath id="__lottie_element_22154"><path d="M0,0 L1080,0 L1080,1080 L0,1080z"/></clipPath><linearGradient id="__lottie_element_22167" spreadMethod="pad" gradientUnits="userSpaceOnUse" x1="2.615999937057495" y1="-46.12699890136719" x2="-13.770000457763672" y2="46.803001403808594"><stop offset="32%" stop-color="rgb(71,75,75)"/><stop offset="56%" stop-color="rgb(60,63,63)"/><stop offset="68%" stop-color="rgb(49,52,52)"/></linearGradient><clipPath id="__lottie_element_22170"><path d="M0,0 L1080,0 L1080,1080 L0,1080z"/></clipPath><radialGradient id="__lottie_element_22176" spreadMethod="pad" gradientUnits="userSpaceOnUse" cx="-19.038000106811523" cy="-23.77400016784668" r="113.9982396320763" fx="-19.038000106811523" fy="-23.77400016784668"><stop offset="87%" stop-color="rgb(218,142,116)"/><stop offset="96%" stop-color="rgb(211,133,117)"/><stop offset="99%" stop-color="rgb(204,123,117)"/></radialGradient><g id="__lottie_element_22168"><g clip-path="url(#__lottie_element_22177)" transform="matrix(1,0,0,1,0,0)" opacity="1" style="display:block"><g transform="matrix(1,0,0,1,769.6060180664062,660.5339965820312)" opacity="1" style="display:block"><g opacity="1" transform="matrix(1,0,0,1,0,0)"><path fill="url(#__lottie_element_22183)" fill-opacity="1" d="M99.21600341796875,12.663000106811523 C92.26799774169922,67.81500244140625 42.2140007019043,106.85399627685547 -12.581000328063965,99.86100006103516 C-67.3759994506836,92.86799621582031 -106.16400146484375,42.48899841308594 -99.21600341796875,-12.663000106811523 C-92.26799774169922,-67.81500244140625 -42.21500015258789,-106.85399627685547 12.581000328063965,-99.86100006103516 C67.3759994506836,-92.86799621582031 106.16400146484375,-42.48899841308594 99.21600341796875,12.663000106811523z"/></g></g></g></g><clipPath id="__lottie_element_22177"><path d="M0,0 L1080,0 L1080,1080 L0,1080z"/></clipPath><radialGradient id="__lottie_element_22183" spreadMethod="pad" gradientUnits="userSpaceOnUse" cx="-19.038000106811523" cy="-23.77400016784668" r="113.9982396320763" fx="-19.038000106811523" fy="-23.77400016784668"><stop offset="87%" stop-color="rgb(218,142,116)"/><stop offset="96%" stop-color="rgb(211,133,117)"/><stop offset="99%" stop-color="rgb(204,123,117)"/></radialGradient><radialGradient id="__lottie_element_22187" spreadMethod="pad" gradientUnits="userSpaceOnUse" cx="222.26400756835938" cy="102.62799835205078" r="108.46999127369371" fx="222.26400756835938" fy="102.62799835205078"><stop offset="73%" stop-color="rgb(255,170,222)"/><stop offset="89%" stop-color="rgb(245,161,210)"/><stop offset="92%" stop-color="rgb(234,152,197)"/></radialGradient><mask id="__lottie_element_22168_1" mask-type="alpha"><use xlink:href="#__lottie_element_22168"/></mask><g id="__lottie_element_22191"><g clip-path="url(#__lottie_element_22192)" transform="matrix(1,0,0,1,0,0)" opacity="1" style="display:block"><g transform="matrix(1,0,0,1,769.6060180664062,660.5339965820312)" opacity="1" style="display:block"><g opacity="1" transform="matrix(1,0,0,1,0,0)"><path fill="url(#__lottie_element_22198)" fill-opacity="1" d="M99.21600341796875,12.663000106811523 C92.26799774169922,67.81500244140625 42.2140007019043,106.85399627685547 -12.581000328063965,99.86100006103516 C-67.3759994506836,92.86799621582031 -106.16400146484375,42.48899841308594 -99.21600341796875,-12.663000106811523 C-92.26799774169922,-67.81500244140625 -42.21500015258789,-106.85399627685547 12.581000328063965,-99.86100006103516 C67.3759994506836,-92.86799621582031 106.16400146484375,-42.48899841308594 99.21600341796875,12.663000106811523z"/></g></g></g></g><clipPath id="__lottie_element_22192"><path d="M0,0 L1080,0 L1080,1080 L0,1080z"/></clipPath><radialGradient id="__lottie_element_22198" spreadMethod="pad" gradientUnits="userSpaceOnUse" cx="-19.038000106811523" cy="-23.77400016784668" r="113.9982396320763" fx="-19.038000106811523" fy="-23.77400016784668"><stop offset="87%" stop-color="rgb(218,142,116)"/><stop offset="96%" stop-color="rgb(211,133,117)"/><stop offset="99%" stop-color="rgb(204,123,117)"/></radialGradient><mask id="__lottie_element_22191_1" mask-type="alpha"><use xlink:href="#__lottie_element_22191"/></mask><radialGradient id="__lottie_element_22217" spreadMethod="pad" gradientUnits="userSpaceOnUse" cx="9.593999862670898" cy="-13.425000190734863" r="46.949666696692645" fx="9.593999862670898" fy="-13.425000190734863"><stop offset="0%" stop-color="rgb(71,75,75)"/><stop offset="46%" stop-color="rgb(61,63,63)"/><stop offset="100%" stop-color="rgb(51,51,51)"/></radialGradient><clipPath id="__lottie_element_22225"><path d="M0,0 L1080,0 L1080,1080 L0,1080z"/></clipPath><g id="__lottie_element_22237"><g transform="matrix(0.9895975589752197,0.1438637673854828,-0.1438637673854828,0.9895975589752197,504.729736328125,569.8170776367188)" opacity="1" style="display:block"><g opacity="1" transform="matrix(1,0,0,1,0,0)"><path fill="rgb(35,174,244)" fill-opacity="1" d="M52.5,-187.5 C52.5,-187.5 -51,-206 -51,-206 C-51,-206 -31.5,-145 -31.5,-145 C-31.5,-145 52.5,-187.5 52.5,-187.5z"/><path stroke-linecap="butt" stroke-linejoin="miter" fill-opacity="0" stroke-miterlimit="4" stroke="rgb(129,214,253)" stroke-opacity="1" stroke-width="0" d="M52.5,-187.5 C52.5,-187.5 -51,-206 -51,-206 C-51,-206 -31.5,-145 -31.5,-145 C-31.5,-145 52.5,-187.5 52.5,-187.5z"/></g></g></g><filter id="__lottie_element_22243" filterUnits="objectBoundingBox" x="0%" y="0%" width="100%" height="100%"><feComponentTransfer in="SourceGraphic"><feFuncA type="table" tableValues="1.0 0.0"/></feComponentTransfer></filter><mask id="__lottie_element_22237_2" mask-type="alpha"><g filter="url(#__lottie_element_22243)"><rect width="1080" height="1080" x="0" y="0" fill="#ffffff" opacity="0"/><use xlink:href="#__lottie_element_22237"/></g></mask><clipPath id="__lottie_element_22251"><path d="M0,0 L1080,0 L1080,1080 L0,1080z"/></clipPath></defs><g clip-path="url(#__lottie_element_21976)"><g clip-path="url(#__lottie_element_22251)" transform="matrix(1,0,0,1,0,0)" opacity="1" style="display:block"><g transform="matrix(1,0,0,1,0,0)" opacity="1" style="display:block"><g opacity="1" transform="matrix(1,0,0,1,463.29400634765625,761.0399780273438)"><path fill="rgb(0,122,195)" fill-opacity="1" d="M-235.9040069580078,-112.34300231933594 C-235.9040069580078,-112.34300231933594 -231.39999389648438,-153.42599487304688 -231.39999389648438,-153.42599487304688 C-231.39999389648438,-153.42599487304688 235.8159942626953,88.60900115966797 235.8159942626953,88.60900115966797 C235.8159942626953,88.60900115966797 231.7270050048828,123.5459976196289 231.7270050048828,123.5459976196289 C231.7270050048828,123.5459976196289 -33.80500030517578,156.8459930419922 -33.80500030517578,156.8459930419922 C-33.80500030517578,156.8459930419922 -235.9040069580078,-112.34300231933594 -235.9040069580078,-112.34300231933594z M216.06199645996094,137.4340057373047 C216.06199645996094,137.4340057373047 -13.57699966430664,171.38999938964844 -13.57699966430664,171.38999938964844 C-28.389999389648438,173.3489990234375 -43.10499954223633,167.14100646972656 -52.10300064086914,155.13699340820312 C-52.10300064086914,155.13699340820312 -233.38699340820312,-105.7040023803711 -233.38699340820312,-105.7040023803711 C-238.48699951171875,-113.60700225830078 -235.66799926757812,-122.04100036621094 -223.21200561523438,-122.78099822998047 C-223.21200561523438,-122.78099822998047 -27.160999298095703,-139.31500244140625 -27.160999298095703,-139.31500244140625 C-26.9950008392334,-139.32400512695312 -26.827999114990234,-139.3280029296875 -26.66200065612793,-139.3260040283203 C-18.819000244140625,-139.24600219726562 -11.3149995803833,-136.07899475097656 -5.758999824523926,-130.4969940185547 C-5.758999824523926,-130.4969940185547 226.7449951171875,105.72699737548828 226.7449951171875,105.72699737548828 C237.63099670410156,116.66400146484375 231.31199645996094,135.41799926757812 216.06199645996094,137.4340057373047z"/></g><g opacity="1" transform="matrix(1,0,0,1,465.69000244140625,740.35302734375)"><path fill="rgb(0,197,255)" fill-opacity="1" d="M217.91600036621094,121.85700225830078 C217.91600036621094,121.85700225830078 -11.722999572753906,152.2209930419922 -11.722999572753906,152.2209930419922 C-26.535999298095703,154.17999267578125 -41.25199890136719,147.9720001220703 -50.25,135.96800231933594 C-50.25,135.96800231933594 -231.53399658203125,-124.87200164794922 -231.53399658203125,-124.87200164794922 C-236.63400268554688,-132.77499389648438 -233.81500244140625,-141.20899963378906 -221.35899353027344,-141.94900512695312 C-221.35899353027344,-141.94900512695312 -11.906000137329102,-152.27200317382812 -11.906000137329102,-152.27200317382812 C-11.739999771118164,-152.281005859375 -11.572999954223633,-152.28500366210938 -11.406999588012695,-152.2830047607422 C-3.563999891281128,-152.2030029296875 3.940000057220459,-149.03599548339844 9.496000289916992,-143.45399475097656 C9.496000289916992,-143.45399475097656 228.5989990234375,90.14900207519531 228.5989990234375,90.14900207519531 C239.48500061035156,101.08599853515625 233.16600036621094,119.84100341796875 217.91600036621094,121.85700225830078z"/></g><g opacity="1" transform="matrix(1,0,0,1,465.6340026855469,740.35302734375)"><path fill="rgb(255,255,255)" fill-opacity="1" d="M204.10899353027344,115.09600067138672 C204.10899353027344,115.09600067138672 -7.841000080108643,143.7220001220703 -7.841000080108643,143.7220001220703 C-21.024999618530273,145.46499633789062 -34.12200164794922,139.94000244140625 -42.13100051879883,129.25599670410156 C-42.13100051879883,129.25599670410156 -215.76699829101562,-119.61599731445312 -215.76699829101562,-119.61599731445312 C-220.30599975585938,-126.6500015258789 -220.68099975585938,-133.79800415039062 -209.59500122070312,-134.45700073242188 C-209.59500122070312,-134.45700073242188 -19.767000198364258,-143.73300170898438 -19.767000198364258,-143.73300170898438 C-19.618999481201172,-143.74099731445312 -13.45199966430664,-143.74600219726562 -13.303999900817871,-143.74400329589844 C-6.322999954223633,-143.67300415039062 0.35600000619888306,-140.85400390625 5.301000118255615,-135.88600158691406 C5.301000118255615,-135.88600158691406 213.6179962158203,86.8759994506836 213.6179962158203,86.8759994506836 C223.3070068359375,96.61100006103516 217.6820068359375,113.3010025024414 204.10899353027344,115.09600067138672z"/></g></g><g transform="matrix(1,0,0,1,0,0)" opacity="1" style="display:block"><g opacity="1" transform="matrix(1,0,0,1,0,0)"><path fill="rgb(227,227,227)" fill-opacity="1" d="M290.3269958496094,633.3629760742188 C290.3269958496094,633.3629760742188 456.8269958496094,624.302978515625 456.8269958496094,624.302978515625 C459.9490051269531,624.1329956054688 463.8320007324219,625.4639892578125 465.510009765625,627.281005859375 C465.510009765625,627.281005859375 465.510009765625,627.281005859375 465.510009765625,627.281005859375 C467.1929931640625,629.10400390625 466.989990234375,632.114990234375 463.8550109863281,632.291015625 C463.8550109863281,632.291015625 296.5379943847656,641.2150268554688 296.5379943847656,641.2150268554688 C293.1449890136719,641.405029296875 288.4469909667969,639.8510131835938 286.9939880371094,637.9340209960938 C286.9939880371094,637.9340209960938 286.9939880371094,637.9340209960938 286.9939880371094,637.9340209960938 C285.5459899902344,636.0239868164062 286.95001220703125,633.5469970703125 290.3269958496094,633.3629760742188z"/></g><g opacity="1" transform="matrix(1,0,0,1,535.56201171875,825.5579833984375)"><path fill="rgb(87,202,3)" fill-opacity="1" d="M-245.24899291992188,-192.19400024414062 C-245.24899291992188,-192.19400024414062 -203.77699279785156,-194.45399475097656 -203.77699279785156,-194.45399475097656 C-200.4510040283203,-194.63499450683594 -196.88600158691406,-193.89300537109375 -195.05799865722656,-191.36599731445312 C-195.05799865722656,-191.36599731445312 -195.05799865722656,-191.36599731445312 -195.05799865722656,-191.36599731445312 C-193.55999755859375,-189.4709930419922 -195.06700134277344,-186.86000061035156 -198.40899658203125,-186.6719970703125 C-198.40899658203125,-186.6719970703125 -239.98300170898438,-184.35499572753906 -239.98300170898438,-184.35499572753906 C-243.37600708007812,-184.1649932861328 -246.90199279785156,-185.03500366210938 -248.58200073242188,-187.6230010986328 C-248.58200073242188,-187.6230010986328 -248.58200073242188,-187.6230010986328 -248.58200073242188,-187.6230010986328 C-250.02999877929688,-189.5330047607422 -248.62600708007812,-192.00999450683594 -245.24899291992188,-192.19400024414062z M-105.51300048828125,-4.169000148773193 C-105.51300048828125,-4.169000148773193 79.46600341796875,-25.499000549316406 79.46600341796875,-25.499000549316406 C85.08300018310547,-26.038999557495117 94.56900024414062,-23.371000289916992 98.2509994506836,-19.333999633789062 C98.2509994506836,-19.333999633789062 110.14900207519531,-6.130000114440918 110.14900207519531,-6.130000114440918 C113.91400146484375,-2.002000093460083 112.38099670410156,1.8380000591278076 106.68900299072266,2.4260001182556152 C106.68900299072266,2.4260001182556152 -83.29000091552734,25.492000579833984 -83.29000091552734,25.492000579833984 C-89.55500030517578,26.138999938964844 -97.31400299072266,23.06599998474121 -100.58599853515625,18.649999618530273 C-100.58599853515625,18.649999618530273 -110.927001953125,4.697000026702881 -110.927001953125,4.697000026702881 C-114.12300109863281,0.3840000033378601 -111.68399810791016,-3.575000047683716 -105.51300048828125,-4.169000148773193z"/></g><g opacity="1" transform="matrix(1,0,0,1,455.54901123046875,726.6489868164062)"><path stroke-linecap="butt" stroke-linejoin="miter" fill-opacity="0" stroke-miterlimit="10" stroke="rgb(227,227,227)" stroke-opacity="1" stroke-width="3" d="M-125.1969985961914,-58.14799880981445 C-125.1969985961914,-58.14799880981445 -26.740999221801758,67.75299835205078 -26.740999221801758,67.75299835205078 M-100.59200286865234,-59.8390007019043 C-100.59200286865234,-59.8390007019043 -0.18299999833106995,65.06800079345703 -0.18299999833106995,65.06800079345703 M-76.26399993896484,-61.512001037597656 C-76.26399993896484,-61.512001037597656 25.87299919128418,62.20899963378906 25.87299919128418,62.20899963378906 M-52.207000732421875,-63.16699981689453 C-52.207000732421875,-63.16699981689453 51.59299850463867,59.380001068115234 51.59299850463867,59.380001068115234 M-28.417999267578125,-64.802001953125 C-28.417999267578125,-64.802001953125 77.36900329589844,57.025001525878906 77.36900329589844,57.025001525878906 M-4.890999794006348,-66.41999816894531 C-4.890999794006348,-66.41999816894531 102.76799774169922,54.61800003051758 102.76799774169922,54.61800003051758 M18.37700080871582,-68.0199966430664 C18.37700080871582,-68.0199966430664 127.8030014038086,52.17300033569336 127.8030014038086,52.17300033569336 M50.46099853515625,-56.82699966430664 C50.46099853515625,-56.82699966430664 -139.2689971923828,-43.172000885009766 -139.2689971923828,-43.172000885009766 M63.981998443603516,-42.27000045776367 C63.981998443603516,-42.27000045776367 -127.10099792480469,-27.805999755859375 -127.10099792480469,-27.805999755859375 M77.83699798583984,-27.351999282836914 C77.83699798583984,-27.351999282836914 -115.24099731445312,-11.994999885559082 -115.24099731445312,-11.994999885559082 M92.04100036621094,-12.060999870300293 C92.04100036621094,-12.060999870300293 -102.83599853515625,4.2129998207092285 -102.83599853515625,4.2129998207092285 M106.6050033569336,3.619999885559082 C106.6050033569336,3.619999885559082 -90.0270004272461,20.844999313354492 -90.0270004272461,20.844999313354492 M121.54399871826172,19.70400047302246 C121.54399871826172,19.70400047302246 -77.60700225830078,37.99300003051758 -77.60700225830078,37.99300003051758 M136.8730010986328,36.207000732421875 C136.8730010986328,36.207000732421875 -64.427001953125,55.57400131225586 -64.427001953125,55.57400131225586 M143.3260040283203,52.2140007019043 C143.3260040283203,52.2140007019043 -42.3849983215332,70.83599853515625 -42.3849983215332,70.83599853515625 C-48.46500015258789,71.44599914550781 -55.95500183105469,68.60900115966797 -59.04899978637695,64.53399658203125 C-59.04899978637695,64.53399658203125 -147.8070068359375,-52.36199951171875 -147.8070068359375,-52.36199951171875 C-150.35899353027344,-55.722999572753906 -147.8520050048828,-58.755001068115234 -142.2449951171875,-59.13800048828125 C-142.2449951171875,-59.13800048828125 29.788000106811523,-70.88300323486328 29.788000106811523,-70.88300323486328 C34.95000076293945,-71.23500061035156 41.534000396728516,-68.9489974975586 44.492000579833984,-65.77100372314453 C44.492000579833984,-65.77100372314453 146.91299438476562,44.26300048828125 146.91299438476562,44.26300048828125 C150.46800231933594,48.082000732421875 148.8730010986328,51.65800094604492 143.3260040283203,52.2140007019043z"/></g><g opacity="1" transform="matrix(1,0,0,1,0,0)"><path fill="rgb(219,242,255)" fill-opacity="1" d="M416.4549865722656,708.0770263671875 C416.4549865722656,708.0770263671875 462.4750061035156,704.4219970703125 462.4750061035156,704.4219970703125 C463.33099365234375,704.35400390625 464.4070129394531,704.739990234375 464.8789978027344,705.2830200195312 C464.8789978027344,705.2830200195312 490.6319885253906,734.9390258789062 490.6319885253906,734.9390258789062 C491.12701416015625,735.510009765625 490.8219909667969,736.0349731445312 489.9490051269531,736.1110229492188 C489.9490051269531,736.1110229492188 443.0320129394531,740.2150268554688 443.0320129394531,740.2150268554688 C442.1390075683594,740.2930297851562 441.0270080566406,739.885986328125 440.54901123046875,739.3070068359375 C440.54901123046875,739.3070068359375 415.6940002441406,709.2009887695312 415.6940002441406,709.2009887695312 C415.239013671875,708.6500244140625 415.5799865722656,708.14697265625 416.4549865722656,708.0770263671875z"/></g><g opacity="1" transform="matrix(1,0,0,1,0,0)"><path fill="rgb(129,214,253)" fill-opacity="1" d="M490.4880065917969,736.7319946289062 C490.4880065917969,736.7319946289062 443.5530090332031,740.844970703125 443.5530090332031,740.844970703125 C442.12701416015625,740.969970703125 440.3429870605469,740.3179931640625 439.5799865722656,739.3920288085938 C439.5799865722656,739.3920288085938 414.7430114746094,709.2769775390625 414.7430114746094,709.2769775390625 C414.0159912109375,708.39599609375 414.56298828125,707.5900268554688 415.96099853515625,707.47900390625 C415.96099853515625,707.47900390625 461.9639892578125,703.8330078125 461.9639892578125,703.8330078125 C463.33099365234375,703.7249755859375 465.05499267578125,704.3410034179688 465.8089904785156,705.2080078125 C465.8089904785156,705.2080078125 491.5780029296875,734.8569946289062 491.5780029296875,734.8569946289062 C492.3699951171875,735.7680053710938 491.8819885253906,736.6099853515625 490.4880065917969,736.7319946289062z M416.95001220703125,708.6749877929688 C416.6000061035156,708.7030029296875 416.4639892578125,708.905029296875 416.64599609375,709.125 C416.64599609375,709.125 441.51800537109375,739.2230224609375 441.51800537109375,739.2230224609375 C441.7090148925781,739.4539794921875 442.156005859375,739.6170043945312 442.5119934082031,739.5859985351562 C442.5119934082031,739.5859985351562 489.4119873046875,735.489990234375 489.4119873046875,735.489990234375 C489.760986328125,735.458984375 489.88299560546875,735.25 489.68499755859375,735.02197265625 C489.68499755859375,735.02197265625 463.9490051269531,705.3569946289062 463.9490051269531,705.3569946289062 C463.760009765625,705.1400146484375 463.3290100097656,704.9849853515625 462.98699951171875,705.0120239257812 C462.98699951171875,705.0120239257812 416.95001220703125,708.6749877929688 416.95001220703125,708.6749877929688z"/></g><g opacity="1" transform="matrix(1,0,0,1,452.885986328125,722.166015625)"><path fill="rgb(129,214,253)" fill-opacity="1" d="M13.817999839782715,15.069000244140625 C13.817999839782715,15.069000244140625 11.902000427246094,15.236000061035156 11.902000427246094,15.236000061035156 C11.902000427246094,15.236000061035156 -13.526000022888184,-14.824999809265137 -13.526000022888184,-14.824999809265137 C-13.526000022888184,-14.824999809265137 -11.645000457763672,-14.973999977111816 -11.645000457763672,-14.973999977111816 C-11.645000457763672,-14.973999977111816 13.817999839782715,15.069000244140625 13.817999839782715,15.069000244140625z M23.767000198364258,-1.1959999799728394 C23.767000198364258,-1.1959999799728394 -22.461000442504883,2.6679999828338623 -22.461000442504883,2.6679999828338623 C-22.461000442504883,2.6679999828338623 -23.47599983215332,1.440999984741211 -23.47599983215332,1.440999984741211 C-23.47599983215332,1.440999984741211 22.7189998626709,-2.4059998989105225 22.7189998626709,-2.4059998989105225 C22.7189998626709,-2.4059998989105225 23.767000198364258,-1.1959999799728394 23.767000198364258,-1.1959999799728394z"/></g><g opacity="1" transform="matrix(1,0,0,1,0,0)"><path fill="rgb(255,255,255)" fill-opacity="1" d="M420.822998046875,716.1069946289062 C414.1659851074219,716.6489868164062 405.9410095214844,713.6589965820312 402.5270080566406,709.468994140625 C399.1369934082031,705.3070068359375 401.7760009765625,701.5250244140625 408.3699951171875,701.0130004882812 C414.9440002441406,700.5029907226562 423.0690002441406,703.4299926757812 426.52099609375,707.56201171875 C429.99700927734375,711.7219848632812 427.4590148925781,715.5670166015625 420.822998046875,716.1069946289062z M447.14898681640625,747.875 C440.36199951171875,748.4819946289062 431.8819885253906,745.3660278320312 428.2900085449219,740.9559936523438 C424.72198486328125,736.5759887695312 427.322998046875,732.5670166015625 434.0459899902344,731.9929809570312 C440.74798583984375,731.4210205078125 449.1199951171875,734.4710083007812 452.75201416015625,738.8179931640625 C456.40899658203125,743.1950073242188 453.9150085449219,747.27001953125 447.14898681640625,747.875z M497.8800048828125,743.0880126953125 C491.3789978027344,743.6170043945312 483.17498779296875,740.6699829101562 479.63299560546875,736.5419921875 C476.114013671875,732.4420166015625 478.52398681640625,728.718994140625 484.96600341796875,728.218994140625 C491.3890075683594,727.7210083007812 499.4930114746094,730.6090087890625 503.07000732421875,734.6799926757812 C506.6709899902344,738.7789916992188 504.3609924316406,742.5609741210938 497.8800048828125,743.0880126953125z M471.260986328125,712.385009765625 C464.635986328125,712.9769897460938 456.1809997558594,709.906982421875 452.4549865722656,705.5650024414062 C448.7550048828125,701.2529907226562 451.1180114746094,697.3099975585938 457.6820068359375,696.7490234375 C464.2250061035156,696.1900024414062 472.5740051269531,699.197998046875 476.3349914550781,703.47802734375 C480.12200927734375,707.7880249023438 477.864990234375,711.7940063476562 471.260986328125,712.385009765625z"/></g><g opacity="1" transform="matrix(1,0,0,1,0,0)"><path fill="rgb(35,174,244)" fill-opacity="1" d="M409.34698486328125,702.2100219726562 C414.89300537109375,701.7780151367188 421.7229919433594,704.2410278320312 424.6300048828125,707.7269897460938 C427.5539855957031,711.2329711914062 425.4150085449219,714.4580078125 419.82501220703125,714.9110107421875 C414.22100830078125,715.364990234375 407.32000732421875,712.8599853515625 404.4410095214844,709.3319702148438 C401.5780029296875,705.823974609375 403.7869873046875,702.6430053710938 409.34698486328125,702.2100219726562z M435.07501220703125,733.2540283203125 C440.7279968261719,732.7689819335938 447.7659912109375,735.333984375 450.8240051269531,739.0020141601562 C453.8999938964844,742.6909790039062 451.79901123046875,746.1090087890625 446.1000061035156,746.6170043945312 C440.385986328125,747.1259765625 433.2720031738281,744.5130004882812 430.24200439453125,740.801025390625 C427.22900390625,737.1099853515625 429.4070129394531,733.739990234375 435.07501220703125,733.2540283203125z M485.9809875488281,729.3989868164062 C491.39898681640625,728.9769897460938 498.2099914550781,731.406005859375 501.2229919433594,734.8410034179688 C504.25299072265625,738.2949829101562 502.30499267578125,741.4669799804688 496.84600830078125,741.9099731445312 C491.37298583984375,742.35400390625 484.4909973144531,739.8829956054688 481.50299072265625,736.4080200195312 C478.5320129394531,732.9530029296875 480.54901123046875,729.822021484375 485.9809875488281,729.3989868164062z M458.7489929199219,697.989990234375 C464.2690124511719,697.5170288085938 471.2869873046875,700.0469970703125 474.4540100097656,703.6580200195312 C477.6400146484375,707.2899780273438 475.7359924316406,710.6500244140625 470.17401123046875,711.14599609375 C464.59698486328125,711.6430053710938 457.50299072265625,709.0689697265625 454.3609924316406,705.4140014648438 C451.23699951171875,701.780029296875 453.2149963378906,698.4639892578125 458.7489929199219,697.989990234375z"/></g></g></g><g transform="matrix(0.9942252039909363,0.10731374472379684,-0.10731374472379684,0.9942252039909363,35.552921295166016,-11.402973175048828)" opacity="1" style="display:block"><g opacity="1" transform="matrix(1,0,0,1,446.1719970703125,170.7270050048828)"><path fill="rgb(129,214,253)" fill-opacity="1" d="M-19.100000381469727,9.920999526977539 C-20.1299991607666,11.920000076293945 -18.20800018310547,14.13700008392334 -16.052000045776367,13.472000122070312 C-16.052000045776367,13.472000122070312 -2.3559999465942383,9.07699966430664 -2.3559999465942383,9.07699966430664 C-2.3559999465942383,9.07699966430664 7.300000190734863,5.979000091552734 7.300000190734863,5.979000091552734 C7.300000190734863,5.979000091552734 17.628999710083008,2.6649999618530273 17.628999710083008,2.6649999618530273 C19.780000686645508,1.975000023841858 20.014999389648438,-0.9610000252723694 18.0049991607666,-1.9850000143051147 C18.0049991607666,-1.9850000143051147 -4.264999866485596,-13.300000190734863 -4.264999866485596,-13.300000190734863 C-5.51800012588501,-13.956999778747559 -7.046000003814697,-13.465999603271484 -7.685999870300293,-12.227999687194824 C-7.685999870300293,-12.227999687194824 -19.100000381469727,9.920999526977539 -19.100000381469727,9.920999526977539z"/></g><g opacity="1" transform="matrix(1,0,0,1,480.0679931640625,295.2650146484375)"><path stroke-linecap="round" stroke-linejoin="miter" fill-opacity="0" stroke-miterlimit="4" stroke="rgb(129,214,253)" stroke-opacity="1" stroke-width="8" d="M-33.42100143432617,-120.36299896240234 C-33.42100143432617,-120.36299896240234 33.367000579833984,121.36199951171875 33.367000579833984,121.36199951171875"/></g></g><g transform="matrix(0.9957914352416992,0.0916491374373436,-0.0916491374373436,0.9957914352416992,27.65116310119629,-6.1907877922058105)" opacity="1" style="display:block"><g opacity="1" transform="matrix(1,0,0,1,446.1719970703125,170.7270050048828)"><path fill="rgb(129,214,253)" fill-opacity="1" d="M-171.75999450683594,320.7309875488281 C-169.8090057373047,321.8489990234375 -167.50799560546875,320.0299987792969 -168.0760040283203,317.84600830078125 C-168.0760040283203,317.84600830078125 -171.85000610351562,303.96600341796875 -171.85000610351562,303.96600341796875 C-171.85000610351562,303.96600341796875 -174.51100158691406,294.1809997558594 -174.51100158691406,294.1809997558594 C-174.51100158691406,294.1809997558594 -177.35699462890625,283.7130126953125 -177.35699462890625,283.7130126953125 C-177.9499969482422,281.5329895019531 -180.8719940185547,281.1669921875 -181.98500061035156,283.12799072265625 C-181.98500061035156,283.12799072265625 -194.2899932861328,304.8659973144531 -194.2899932861328,304.8659973144531 C-195.0030059814453,306.0880126953125 -194.58200073242188,307.6369934082031 -193.37399291992188,308.3320007324219 C-193.37399291992188,308.3320007324219 -171.75999450683594,320.7309875488281 -171.75999450683594,320.7309875488281z"/></g><g opacity="1" transform="matrix(1,0,0,1,480.0679931640625,295.2650146484375)"><path stroke-linecap="round" stroke-linejoin="miter" fill-opacity="0" stroke-miterlimit="4" stroke="rgb(129,214,253)" stroke-opacity="1" stroke-width="8" d="M33.367000579833984,121.36199951171875 C33.367000579833984,121.36199951171875 -214.1739959716797,177.8249969482422 -214.1739959716797,177.8249969482422"/></g></g><g mask="url(#__lottie_element_22237_2)" style="display:block"><g transform="matrix(0.9957914352416992,0.0916491374373436,-0.0916491374373436,0.9957914352416992,460.0334777832031,428.9078369140625)" opacity="1"><g opacity="1" transform="matrix(1,0,0,1,0,0)"><path stroke-linecap="round" stroke-linejoin="miter" fill-opacity="0" stroke-miterlimit="4" stroke="rgb(129,214,253)" stroke-opacity="1" stroke-width="8" d="M47.68899917602539,-38.472999572753906 C47.68899917602539,-38.472999572753906 58.742000579833984,-35.63399887084961 58.742000579833984,-35.63399887084961 M23.538999557495117,-38.237998962402344 C23.538999557495117,-38.237998962402344 35.125999450683594,-39.35200119018555 35.125999450683594,-39.35200119018555 M2.506999969482422,-27.291000366210938 C2.506999969482422,-27.291000366210938 12.258000373840332,-33.518001556396484 12.258000373840332,-33.518001556396484 M-13.562999725341797,-8.925000190734863 C-13.562999725341797,-8.925000190734863 -6.1020002365112305,-18.913000106811523 -6.1020002365112305,-18.913000106811523 M-21.35300064086914,13.543000221252441 C-21.35300064086914,13.543000221252441 -18.31399917602539,2.0510001182556152 -18.31399917602539,2.0510001182556152 M-19.96299934387207,36.46099853515625 C-19.96299934387207,36.46099853515625 -21.599000930786133,25.60099983215332 -21.599000930786133,25.60099983215332"/></g></g></g><g transform="matrix(0.9869725704193115,0.16088877618312836,-0.16088877618312836,0.9869725704193115,498.6641845703125,453.73394775390625)" opacity="1" style="display:block"><path fill="rgb(255,255,255)" fill-opacity="1" d="M14.696999549865723,0.6729999780654907 C14.324999809265137,8.789999961853027 7.443999767303467,15.069000244140625 -0.6729999780654907,14.696999549865723 C-8.789999961853027,14.324999809265137 -15.069000244140625,7.443999767303467 -14.696999549865723,-0.6729999780654907 C-14.324999809265137,-8.789999961853027 -7.443999767303467,-15.069000244140625 0.6729999780654907,-14.696999549865723 C8.789999961853027,-14.324999809265137 15.069000244140625,-7.443999767303467 14.696999549865723,0.6729999780654907z"/><path stroke-linecap="round" stroke-linejoin="miter" fill-opacity="0" stroke-miterlimit="4" stroke="rgb(129,214,253)" stroke-opacity="1" stroke-width="8" d="M14.696999549865723,0.6729999780654907 C14.324999809265137,8.789999961853027 7.443999767303467,15.069000244140625 -0.6729999780654907,14.696999549865723 C-8.789999961853027,14.324999809265137 -15.069000244140625,7.443999767303467 -14.696999549865723,-0.6729999780654907 C-14.324999809265137,-8.789999961853027 -7.443999767303467,-15.069000244140625 0.6729999780654907,-14.696999549865723 C8.789999961853027,-14.324999809265137 15.069000244140625,-7.443999767303467 14.696999549865723,0.6729999780654907z"/></g><g clip-path="url(#__lottie_element_22225)" transform="matrix(0.9931236505508423,0.11707013845443726,-0.11707013845443726,0.9931236505508423,130.99615478515625,-20.5103759765625)" opacity="1" style="display:block"><g transform="matrix(0,1,-1,0,1041.93701171875,531.68701171875)" opacity="1" style="display:block"><path stroke-linecap="round" stroke-linejoin="round" fill-opacity="0" stroke="rgb(129,214,253)" stroke-opacity="1" stroke-width="18" d="M222.375,247 C222.375,247 236.68800354003906,247 236.68800354003906,247 C236.68800354003906,247 250.36300659179688,247 250.36300659179688,247 C250.36300659179688,247 277,247 277,247 C277,247 287.5,247 287.5,247"/></g><g transform="matrix(0,1,-1,0,1041.93701171875,531.68701171875)" opacity="1" style="display:block"><path stroke-linecap="round" stroke-linejoin="round" fill-opacity="0" stroke="rgb(129,214,253)" stroke-opacity="1" stroke-width="18" d="M254.62100219726562,247.25 C254.62100219726562,247.25 254.62100219726562,279.375 254.62100219726562,279.375 M254.74200439453125,214.25 C254.74200439453125,214.25 254.74200439453125,246.375 254.74200439453125,246.375"/></g></g><g clip-path="url(#__lottie_element_22154)" transform="matrix(0.9932953715324402,0.11560425907373428,-0.11560425907373428,0.9932953715324402,78.63983154296875,-45.6446533203125)" opacity="1" style="display:block"><g transform="matrix(1,0,0,1.0449999570846558,840.7319946289062,645.7335815429688)" opacity="1" style="display:block"><path fill="rgb(51,51,51)" fill-opacity="1" d="M48.37200164794922,-1.4709999561309814 C49.18299865722656,25.54599952697754 28.183000564575195,48.106998443603516 1.468000054359436,48.91899871826172 C-25.246999740600586,49.73099899291992 -47.56100082397461,28.488000869750977 -48.37200164794922,1.4709999561309814 C-49.18299865722656,-25.54599952697754 -28.183000564575195,-48.106998443603516 -1.468000054359436,-48.91899871826172 C25.246999740600586,-49.73099899291992 47.56100082397461,-28.488000869750977 48.37200164794922,-1.4709999561309814z"/></g><g transform="matrix(1,0,0,1.0449999570846558,750.9110107421875,580.4806518554688)" opacity="1" style="display:block"><path fill="rgb(51,51,51)" fill-opacity="1" d="M41.60200119018555,9.63700008392334 C36.58100128173828,31.60700035095215 13.885000228881836,45.10300064086914 -9.090999603271484,39.78099822998047 C-32.06700134277344,34.45899963378906 -46.62300109863281,12.333000183105469 -41.60200119018555,-9.63700008392334 C-36.58100128173828,-31.60700035095215 -13.885000228881836,-45.10300064086914 9.090999603271484,-39.78099822998047 C32.06700134277344,-34.45899963378906 46.62300109863281,-12.333000183105469 41.60200119018555,9.63700008392334z"/></g><g transform="matrix(1,0,0,1.0449999570846558,812.0700073242188,579.2747192382812)" opacity="1" style="display:block"><g opacity="1" transform="matrix(1,0,0,1,0,0)"><path fill="url(#__lottie_element_22217)" fill-opacity="1" d="M45.0629997253418,22.7189998626709 C32.59400177001953,44.43299865722656 2.309999942779541,51.862998962402344 -22.57699966430664,39.316001892089844 C-47.4640007019043,26.768999099731445 -57.53200149536133,-1.0049999952316284 -45.0629997253418,-22.7189998626709 C-32.59400177001953,-44.43299865722656 -2.309999942779541,-51.862998962402344 22.57699966430664,-39.316001892089844 C47.4640007019043,-26.768999099731445 57.53200149536133,1.0049999952316284 45.0629997253418,22.7189998626709z"/></g></g><g clip-path="url(#__lottie_element_22170)" transform="matrix(1,0,0,1,0,0)" opacity="1" style="display:block"><g transform="matrix(1,0,0,1,769.6060180664062,660.5339965820312)" opacity="1" style="display:block"><g opacity="1" transform="matrix(1,0,0,1,0,0)"><path fill="url(#__lottie_element_22176)" fill-opacity="1" d="M99.21600341796875,12.663000106811523 C92.26799774169922,67.81500244140625 42.2140007019043,106.85399627685547 -12.581000328063965,99.86100006103516 C-67.3759994506836,92.86799621582031 -106.16400146484375,42.48899841308594 -99.21600341796875,-12.663000106811523 C-92.26799774169922,-67.81500244140625 -42.21500015258789,-106.85399627685547 12.581000328063965,-99.86100006103516 C67.3759994506836,-92.86799621582031 106.16400146484375,-42.48899841308594 99.21600341796875,12.663000106811523z"/></g></g></g><g transform="matrix(1,0,0,1,2.010009765625,0.85797119140625)" opacity="1" style="display:block"><path fill="rgb(255,255,255)" fill-opacity="1" d="M807.7039794921875,606.031982421875 C801.2630004882812,614.2739868164062 787.7160034179688,614.3629760742188 777.4450073242188,606.2319946289062 C767.1740112304688,598.1010131835938 764.0700073242188,584.8280029296875 770.510986328125,576.5859985351562 C776.9520263671875,568.343994140625 790.4990234375,568.2550048828125 800.77001953125,576.385986328125 C811.041015625,584.5170288085938 814.14501953125,597.7899780273438 807.7039794921875,606.031982421875z"/></g><g transform="matrix(0.9707918763160706,-0.23992307484149933,0.22792690992355347,0.9222522974014282,-109.50103759765625,236.4676513671875)" opacity="1" style="display:block"><path fill="rgb(61,61,61)" fill-opacity="1" d="M804.5980224609375,592.864990234375 C802.6069946289062,594.364990234375 799.4749755859375,593.5399780273438 797.60302734375,591.02197265625 C795.7310180664062,588.5040283203125 795.8270263671875,585.2470092773438 797.8179931640625,583.7470092773438 C799.8090209960938,582.2470092773438 802.9409790039062,583.072021484375 804.81298828125,585.5900268554688 C806.6849975585938,588.1079711914062 806.5889892578125,591.364990234375 804.5980224609375,592.864990234375z"/></g><g transform="matrix(1,0,0,1,-0.6700439453125,-3.13897705078125)" opacity="1" style="display:block"><path fill="rgb(255,255,255)" fill-opacity="1" d="M805.2949829101562,603.9000244140625 C799.9580078125,612.906005859375 804.72900390625,625.6669921875 815.9509887695312,632.405029296875 C827.1729736328125,639.1430053710938 840.5969848632812,637.3049926757812 845.9340209960938,628.2990112304688 C851.27099609375,619.2930297851562 846.5,606.531005859375 835.2780151367188,599.7930297851562 C824.0560302734375,593.0549926757812 810.6320190429688,594.8939819335938 805.2949829101562,603.9000244140625z"/></g><g transform="matrix(0.953106164932251,0.302636057138443,-0.28750425577163696,0.9054508805274963,211.43243408203125,-196.8262939453125)" opacity="1" style="display:block"><path fill="rgb(61,61,61)" fill-opacity="1" d="M818.635986328125,602.0469970703125 C817.9669799804688,604.426025390625 819.8610229492188,607.0490112304688 822.8670043945312,607.906005859375 C825.8729858398438,608.7630004882812 828.85302734375,607.530029296875 829.5230102539062,605.1510009765625 C830.1920166015625,602.77197265625 828.2979736328125,600.1489868164062 825.2919921875,599.2919921875 C822.2860107421875,598.4349975585938 819.3060302734375,599.6680297851562 818.635986328125,602.0469970703125z"/></g><g mask="url(#__lottie_element_22191_1)" style="display:block"><g transform="matrix(1,0,0,1,581,564)" opacity="1"><path fill="rgb(218,142,116)" fill-opacity="1" d="M184.69700622558594,-30.975000381469727 C184.69700622558594,-30.975000381469727 171.22900390625,23.53499984741211 181.44400024414062,13.836000442504883 C202.57699584960938,-6.228000164031982 233.7010040283203,5.521999835968018 232.33099365234375,27.05900001525879 C231.94700622558594,33.09600067138672 240.0800018310547,-11.928999900817871 240.0800018310547,-11.928999900817871 C240.0800018310547,-11.928999900817871 184.69700622558594,-30.975000381469727 184.69700622558594,-30.975000381469727z M215.9669952392578,76.30699920654297 C215.9669952392578,76.30699920654297 227.19000244140625,59.35300064086914 225.98899841308594,45.31800079345703 C224.5,27.9060001373291 194,9.906999588012695 179.72799682617188,16.229999542236328 C174.19700622558594,18.68000030517578 173.54100036621094,43.44900131225586 173.54100036621094,43.44900131225586 C173.54100036621094,43.44900131225586 215.9669952392578,76.30699920654297 215.9669952392578,76.30699920654297z"/></g></g><g mask="url(#__lottie_element_22191_1)" style="display:block"><g transform="matrix(1,0,0,1,580,563)" opacity="1"><path fill="rgb(218,142,116)" fill-opacity="1" d="M239.07200622558594,-1.350000023841858 C239.07200622558594,-1.350000023841858 276.0799865722656,12.571000099182129 276.0799865722656,12.571000099182129 C276.0799865722656,12.571000099182129 269.8330078125,66.85299682617188 270.08099365234375,60.808998107910156 C271.125,35.40700149536133 240.375,18.1560001373291 232.81900024414062,29.461000442504883 C237,12.656000137329102 239.07200622558594,-1.350000023841858 239.07200622558594,-1.350000023841858z M202.92999267578125,66.4739990234375 C202.92999267578125,66.4739990234375 213.26499938964844,51.06999969482422 226.5189971923828,46.32099914550781 C242.96200561523438,40.43000030517578 271.8030090332031,57.715999603271484 271.4419860839844,72.3239974975586 C271.302001953125,77.98500061035156 248.96400451660156,88.70099639892578 248.96400451660156,88.70099639892578 C248.96400451660156,88.70099639892578 202.92999267578125,66.4739990234375 202.92999267578125,66.4739990234375z"/></g></g><g mask="url(#__lottie_element_22168_1)" style="display:block"><g transform="matrix(1,0,0,1,540,540)" opacity="1"><g opacity="1" transform="matrix(1,0,0,1,0,0)"><path fill="url(#__lottie_element_22187)" fill-opacity="1" d="M227.08599853515625,156.61399841308594 C227.08599853515625,156.61399841308594 206.36599731445312,166.55299377441406 206.36599731445312,166.55299377441406 C204.4320068359375,167.4810028076172 202.18299865722656,166.12100219726562 202.08799743652344,163.96600341796875 C202.08799743652344,163.96600341796875 201.12100219726562,142.05799865722656 201.12100219726562,142.05799865722656 C168.072998046875,119.37300109863281 152.90199279785156,80.20099639892578 154.35899353027344,49.80799865722656 C145.6020050048828,64.15699768066406 129.6959991455078,87.81400299072266 127.64900207519531,105.85800170898438 C119.69599914550781,175.9550018310547 166.343994140625,221.93299865722656 221.0850067138672,226.75100708007812 C270.1340026855469,231.0679931640625 305.5639953613281,198.79200744628906 327.0260009765625,168.427001953125 C299.4880065917969,178.48599243164062 261.50201416015625,171.9409942626953 227.08599853515625,156.61399841308594z"/></g></g></g><g transform="matrix(1,0,0,1,794.260986328125,624.2000122070312)" opacity="1" style="display:block"><g opacity="1" transform="matrix(1,0,0,1,0,0)"><path fill="rgb(255,0,0)" fill-opacity="0" d="M85.5,-85.5 C85.5,-85.5 -85.5,-85.5 -85.5,-85.5 C-85.5,-85.5 -85.5,85.5 -85.5,85.5 C-85.5,85.5 85.5,85.5 85.5,85.5 C85.5,85.5 85.5,-85.5 85.5,-85.5z"/></g><g opacity="1" transform="matrix(1,0,0,1,0,0)"><path stroke="url(#__lottie_element_22167)" stroke-linecap="round" stroke-linejoin="miter" fill-opacity="0" stroke-miterlimit="10" stroke-opacity="1" stroke-width="60" d="M36.290000915527344,23.534000396728516 C36.290000915527344,23.534000396728516 14.79800033569336,24.166000366210938 -2.5850000381469727,14.79699993133545 C-24.531999588012695,2.9800000190734863 -37.41400146484375,-15.293999671936035 -37.41400146484375,-15.293999671936035"/></g></g><g transform="matrix(1,0,0,1,804.4550170898438,608.094970703125)" opacity="1" style="display:block"><path fill="rgb(218,142,116)" fill-opacity="1" d="M1.4789999723434448,12.241999626159668 C-5.441999912261963,13.08899974822998 -11.71399974822998,8.295000076293945 -12.531000137329102,1.534000039100647 C-13.347999572753906,-5.2270002365112305 -8.399999618530273,-11.395000457763672 -1.4789999723434448,-12.241999626159668 C5.441999912261963,-13.08899974822998 11.71399974822998,-8.295000076293945 12.531000137329102,-1.534000039100647 C13.347999572753906,5.2270002365112305 8.399999618530273,11.395000457763672 1.4789999723434448,12.241999626159668z"/></g></g><g clip-path="url(#__lottie_element_22147)" transform="matrix(0.9601691365242004,0.27941951155662537,-0.27941951155662537,0.9601691365242004,149.5347900390625,-180.46466064453125)" opacity="1" style="display:block"><g transform="matrix(0.8894163966178894,0.4570979177951813,-0.4570979177951813,0.8894163966178894,712.643798828125,446.6534729003906)" opacity="1" style="display:block"><g opacity="1" transform="matrix(1,0,0,1,0,0)"><path fill="rgb(129,214,253)" fill-opacity="1" d="M-18.086000442504883,44.90599822998047 C-22.382999420166016,44.948001861572266 -26.486000061035156,41.79899978637695 -27.256000518798828,37.880001068115234 C-27.256000518798828,37.880001068115234 -39.19900131225586,-22.937999725341797 -39.19900131225586,-22.937999725341797 C-39.970001220703125,-26.863000869750977 -37.11600112915039,-30.075000762939453 -32.819000244140625,-30.117000579833984 C-32.819000244140625,-30.117000579833984 33.76100158691406,-30.774999618530273 33.76100158691406,-30.774999618530273 C38.051998138427734,-30.816999435424805 42.1609992980957,-27.673999786376953 42.93199920654297,-23.749000549316406 C42.93199920654297,-23.749000549316406 54.875,37.069000244140625 54.875,37.069000244140625 C55.64500045776367,40.987998962402344 52.7859992980957,44.20600128173828 48.494998931884766,44.24800109863281 C48.494998931884766,44.24800109863281 -18.086000442504883,44.90599822998047 -18.086000442504883,44.90599822998047z"/></g><g opacity="1" transform="matrix(1,0,0,1,0,0)"><path fill="rgb(35,174,244)" fill-opacity="1" d="M-18.55699920654297,-65.83699798583984 C-20.579999923706055,-62.26100158691406 -31.631999969482422,-40.797000885009766 -35.70899963378906,-33.64699935913086 C-40.244998931884766,-25.691999435424805 -39.19900131225586,-22.937999725341797 -39.19900131225586,-22.937999725341797 C-39.970001220703125,-26.863000869750977 -37.11600112915039,-30.075000762939453 -32.819000244140625,-30.117000579833984 C-32.819000244140625,-30.117000579833984 33.76100158691406,-30.774999618530273 33.76100158691406,-30.774999618530273 C38.051998138427734,-30.816999435424805 42.1609992980957,-27.673999786376953 42.93199920654297,-23.749000549316406 C42.93199920654297,-23.749000549316406 51.981998443603516,21.32200050354004 54.845001220703125,37.05799865722656 C55.7130012512207,41.83000183105469 51.88100051879883,44.21699905395508 48.573001861572266,44.27299880981445 C53.44499969482422,44.117000579833984 54.500999450683594,40.83599853515625 56.56800079345703,36.80400085449219 C60.444000244140625,29.243999481201172 73.89900207519531,3.0920000076293945 74.5270004272461,1.8320000171661377 C75.98300170898438,-1.090999960899353 75.51499938964844,-3.0989999771118164 75.10800170898438,-5.913000106811523 C74.61000061035156,-9.354000091552734 64.20099639892578,-60.03799819946289 63.79899978637695,-62.47800064086914 C62.762001037597656,-68.76699829101562 58.7239990234375,-70.06700134277344 53.016998291015625,-70.18000030517578 C47.310001373291016,-70.29299926757812 -6.293000221252441,-70.01100158691406 -11.218000411987305,-69.99099731445312 C-14.734999656677246,-69.97699737548828 -16.534000396728516,-69.41300201416016 -18.55699920654297,-65.83699798583984z"/></g></g></g><g clip-path="url(#__lottie_element_22137)" style="display:none"><g style="display:none"><path stroke-linecap="round" stroke-linejoin="round" fill-opacity="0"/></g><g style="display:none"><path stroke-linecap="round" stroke-linejoin="round" fill-opacity="0"/></g></g><g clip-path="url(#__lottie_element_22127)" transform="matrix(0.9902369379997253,0.139394611120224,-0.139394611120224,0.9902369379997253,-86.50531005859375,-404.64825439453125)" opacity="1" style="display:block"><g transform="matrix(0.20461536943912506,-0.9788424372673035,0.9788424372673035,0.20461536943912506,501.3324279785156,986.0376586914062)" opacity="1" style="display:block"><path stroke-linecap="round" stroke-linejoin="round" fill-opacity="0" stroke="rgb(129,214,253)" stroke-opacity="1" stroke-width="18" d="M222.375,247 C222.375,247 236.68800354003906,247 236.68800354003906,247 C236.68800354003906,247 250.36300659179688,247 250.36300659179688,247 C250.36300659179688,247 277,247 277,247 C277,247 287.5,247 287.5,247"/></g><g transform="matrix(-0.20461536943912506,0.9788424372673035,-0.9788424372673035,-0.20461536943912506,1088.7362060546875,588.45361328125)" opacity="1" style="display:block"><path stroke-linecap="round" stroke-linejoin="round" fill-opacity="0" stroke="rgb(129,214,253)" stroke-opacity="1" stroke-width="18" d="M254.7895965576172,224.43338012695312 C254.7895965576172,224.43338012695312 254.79098510742188,233.9159393310547 254.79098510742188,233.9159393310547 M254.74339294433594,259.5348815917969 C254.74339294433594,259.5348815917969 254.65769958496094,269.36578369140625 254.65769958496094,269.36578369140625"/></g></g><g clip-path="url(#__lottie_element_22049)" transform="matrix(0.9850772023200989,0.17211289703845978,-0.17211289703845978,0.9850772023200989,126.31155395507812,-40.7547607421875)" opacity="1" style="display:block"><g transform="matrix(1,0,0,1,454.260009765625,598.1749877929688)" opacity="1" style="display:block"><g opacity="1" transform="matrix(1,0,0,1,0,0)"><path fill="url(#__lottie_element_22125)" fill-opacity="1" d="M26.388999938964844,-74.14199829101562 C21.570999145507812,-91.66899871826172 2.7330000400543213,-98.46800231933594 -4.590000152587891,-85.322998046875 C-4.590000152587891,-85.322998046875 -64.37000274658203,21.97599983215332 -64.37000274658203,21.97599983215332 C-70.60299682617188,33.16299819946289 -63.57099914550781,50.994998931884766 -51.1609992980957,55.4739990234375 C-51.1609992980957,55.4739990234375 47.941001892089844,91.23799896240234 47.941001892089844,91.23799896240234 C60.35100173950195,95.71700286865234 69.81099700927734,83.83599853515625 65.71099853515625,68.91999816894531 C65.71099853515625,68.91999816894531 26.388999938964844,-74.14199829101562 26.388999938964844,-74.14199829101562z"/></g></g><g transform="matrix(1,0,0,1,464.2229919433594,651.9769897460938)" opacity="1" style="display:block"><path stroke-linecap="round" stroke-linejoin="miter" fill-opacity="0" stroke-miterlimit="4" stroke="rgb(255,143,131)" stroke-opacity="1" stroke-width="9.098" d="M-8.512999534606934,2.8970000743865967 C-5.449999809265137,-1.7139999866485596 1.8960000276565552,-4.513000011444092 8.512999534606934,-1.8819999694824219"/></g><g clip-path="url(#__lottie_element_22101)" transform="matrix(1,0,0,1,0,0)" opacity="1" style="display:block"><g transform="matrix(1,0,0,1,477.89300537109375,614.7760009765625)" opacity="1" style="display:block"><path fill="rgb(255,255,255)" fill-opacity="1" d="M18.219999313354492,14.076000213623047 C18.219999313354492,14.076000213623047 12.788999557495117,-21.966999053955078 12.788999557495117,-21.966999053955078 C12.418999671936035,-23.631000518798828 9.920000076293945,-30.21299934387207 -1.9839999675750732,-30.489999771118164 C-12.838000297546387,-30.742000579833984 -15.781000137329102,-23.79800033569336 -16.618999481201172,-12.381999969482422 C-16.618999481201172,-12.381999969482422 -18.61400032043457,10.291000366210938 -18.61400032043457,10.291000366210938 C-18.98699951171875,15.36299991607666 -15.762999534606934,20.72100067138672 -11.390999794006348,22.298999786376953 C-11.390999794006348,22.298999786376953 4.986999988555908,28.209999084472656 4.986999988555908,28.209999084472656 C13.366999626159668,31.233999252319336 20.475000381469727,24.209999084472656 18.219999313354492,14.076000213623047z"/></g></g><g mask="url(#__lottie_element_22109_1)" style="display:block"><g transform="matrix(1,0,0,1,481.5329895019531,620.489990234375)" opacity="1"><path fill="rgb(74,77,77)" fill-opacity="1" d="M1.1039999723434448,-13.51099967956543 C-3.0339999198913574,-15.003999710083008 -6.882999897003174,-10.166000366210938 -7.493000030517578,-2.7039999961853027 C-8.102999687194824,4.757999897003174 -5.242000102996826,12.017999649047852 -1.1039999723434448,13.51099967956543 C3.0339999198913574,15.003999710083008 6.882999897003174,10.166000366210938 7.493000030517578,2.7039999961853027 C8.102999687194824,-4.757999897003174 5.242000102996826,-12.017999649047852 1.1039999723434448,-13.51099967956543z"/></g></g><g mask="url(#__lottie_element_22092_1)" style="display:block"><g transform="matrix(1,0,0,1,478.1000061035156,607.4819946289062)" opacity="1"><path fill="rgb(164,111,255)" fill-opacity="1" d="M18.29400062561035,23.084999084472656 C18.29400062561035,23.084999084472656 18.28499984741211,23.648000717163086 18.28499984741211,23.648000717163086 C18.28499984741211,23.648000717163086 -18.29400062561035,10.446999549865723 -18.29400062561035,10.446999549865723 C-18.29400062561035,10.446999549865723 -17.336000442504883,-9.519000053405762 -17.336000442504883,-9.519000053405762 C-16.49799919128418,-20.93400001525879 -8.449999809265137,-25.16200065612793 2.4769999980926514,-23.214000701904297 C4.359000205993652,-22.841999053955078 7.504000186920166,-21.993999481201172 7.9710001945495605,-20.06800079345703 C7.9710001945495605,-20.06800079345703 14.060999870300293,-15.395999908447266 14.060999870300293,-15.395999908447266 C14.060999870300293,-15.395999908447266 19.945999145507812,17.392000198364258 19.945999145507812,17.392000198364258 C20.1200008392334,18.176000595092773 18.222000122070312,22.334999084472656 18.29400062561035,23.084999084472656z"/></g></g><g clip-path="url(#__lottie_element_22086)" transform="matrix(1,0,0,1,0,0)" opacity="1" style="display:block"><g transform="matrix(1,0,0,1,436.76800537109375,604.2030029296875)" opacity="1" style="display:block"><path fill="rgb(255,255,255)" fill-opacity="1" d="M-17.204999923706055,-3.6689999103546143 C-17.204999923706055,-3.6689999103546143 -10.09000015258789,-24.85700035095215 -10.09000015258789,-24.85700035095215 C-8.642999649047852,-31.07699966430664 -0.9760000109672546,-37.22200012207031 4.186999797821045,-34.518001556396484 C19.10700035095215,-26.702999114990234 19.509000778198242,-9.645999908447266 18.479000091552734,1.7280000448226929 C18.479000091552734,1.7280000448226929 17.01099967956543,18.884000778198242 17.01099967956543,18.884000778198242 C16.55500030517578,23.92300033569336 12.668000221252441,26.711999893188477 8.29699993133545,25.135000228881836 C8.29699993133545,25.135000228881836 -7.688000202178955,19.365999221801758 -7.688000202178955,19.365999221801758 C-16.176000595092773,16.30299949645996 -21.14699935913086,4.269999980926514 -17.204999923706055,-3.6689999103546143z"/></g></g><g mask="url(#__lottie_element_22075_1)" style="display:block"><g transform="matrix(1,0,0,1,445.1499938964844,608.5809936523438)" opacity="1"><path fill="rgb(74,77,77)" fill-opacity="1" d="M1.1039999723434448,-13.51099967956543 C5.242000102996826,-12.017999649047852 8.102999687194824,-4.757999897003174 7.493000030517578,2.7039999961853027 C6.882999897003174,10.166000366210938 3.0339999198913574,15.003999710083008 -1.1039999723434448,13.51099967956543 C-5.242000102996826,12.017999649047852 -8.102999687194824,4.757999897003174 -7.493000030517578,-2.7039999961853027 C-6.882999897003174,-10.166000366210938 -3.0339999198913574,-15.003999710083008 1.1039999723434448,-13.51099967956543z"/></g></g><g mask="url(#__lottie_element_22065_1)" style="display:block"><g transform="matrix(1,0,0,1,437.2130126953125,592.281982421875)" opacity="1"><path fill="rgb(164,111,255)" fill-opacity="1" d="M-18.8799991607666,10.256999969482422 C-18.8799991607666,10.256999969482422 -18.913000106811523,10.666999816894531 -18.913000106811523,10.666999816894531 C-18.913000106811523,10.666999816894531 18.19499969482422,24.073999404907227 18.19499969482422,24.073999404907227 C18.19499969482422,24.073999404907227 18.81599998474121,3.5369999408721924 18.81599998474121,3.5369999408721924 C19.83799934387207,-7.811999797821045 12.145999908447266,-20.84000015258789 2.305000066757202,-24.391000747680664 C0.9290000200271606,-24.886999130249023 -0.3840000033378601,-24.351999282836914 -0.996999979019165,-23.042999267578125 C-0.996999979019165,-23.042999267578125 -18.16699981689453,8.343999862670898 -18.16699981689453,8.343999862670898 C-18.45599937438965,8.960000038146973 -18.691999435424805,9.60099983215332 -18.8799991607666,10.256999969482422z"/></g></g><g mask="url(#__lottie_element_22059_1)" style="display:block"><g transform="matrix(1,0,0,1,540,540)" opacity="1"><path fill="rgb(164,111,255)" fill-opacity="1" d="M-71.05599975585938,-46.66299819946289 C-71.05599975585938,-46.66299819946289 -138.02000427246094,119.10600280761719 -138.02000427246094,119.10600280761719 C-138.02000427246094,119.10600280761719 -150.58900451660156,117.927001953125 -150.58900451660156,117.927001953125 C-163.7429962158203,118.81600189208984 -169.61099243164062,104.78199768066406 -161.61000061035156,91.56500244140625 C-161.61000061035156,91.56500244140625 -84.87999725341797,-35.198001861572266 -84.87999725341797,-35.198001861572266 C-81.30500030517578,-41.10499954223633 -76.19999694824219,-44.96099853515625 -71.05599975585938,-46.66299819946289z"/></g></g><g transform="matrix(1,0,0,1,461.93701171875,537.094970703125)" opacity="1" style="display:block"><path fill="rgb(164,111,255)" fill-opacity="1" d="M19.02899932861328,-35.56700134277344 C19.29599952697754,-32.709999084472656 20.854000091552734,-28.785999298095703 20.621999740600586,-25.937999725341797 C20.621999740600586,-25.937999725341797 31.19499969482422,40.31999969482422 31.19499969482422,40.31999969482422 C15.67300033569336,38.152000427246094 7.7129998207092285,34.994998931884766 -2.7100000381469727,31.225000381469727 C-10.718999862670898,28.327999114990234 -15.6899995803833,21.7549991607666 -14.8149995803833,10.26099967956543 C-14.8149995803833,10.26099967956543 -28.386999130249023,11.661999702453613 -31.19499969482422,9.729999542236328 C-31.19499969482422,9.729999542236328 -8.281000137329102,-31.538999557495117 -8.281000137329102,-31.538999557495117 C-2.805000066757202,-40.58399963378906 8.493000030517578,-43.82099914550781 19.02899932861328,-35.56700134277344z"/></g><g transform="matrix(1,0,0,1,530.7059936523438,592.4099731445312)" opacity="1" style="display:block"><g opacity="1" transform="matrix(1,0,0,1,0,0)"><path fill="url(#__lottie_element_22055)" fill-opacity="1" d="M-63.8380012512207,-86.38999938964844 C-65.18299865722656,-92.09300231933594 -59.071998596191406,-96.63400268554688 -54.051998138427734,-93.66300201416016 C-54.00299835205078,-93.63400268554688 -53.95399856567383,-93.6050033569336 -53.904998779296875,-93.57599639892578 C-53.016998291015625,-93.21399688720703 -49.09299850463867,-90.41400146484375 -48.209999084472656,-89.83000183105469 C-48.209999084472656,-89.83000183105469 54.724998474121094,-20.275999069213867 54.724998474121094,-20.275999069213867 C65.3759994506836,-13.234999656677246 67.29299926757812,5.854000091552734 58.32600021362305,15.581999778747559 C58.32600021362305,15.581999778747559 -13.279999732971191,93.26100158691406 -13.279999732971191,93.26100158691406 C-13.312000274658203,93.28800201416016 -13.345000267028809,93.31400299072266 -13.376999855041504,93.34100341796875 C-16.485000610351562,95.927001953125 -21.209999084472656,94.33100128173828 -22.132999420166016,90.37999725341797 C-22.132999420166016,90.37999725341797 -63.8380012512207,-86.38999938964844 -63.8380012512207,-86.38999938964844z"/></g></g></g><g clip-path="url(#__lottie_element_22042)" transform="matrix(0.9407542943954468,0.33908897638320923,-0.33908897638320923,0.9407542943954468,216.78094482421875,-58.63250732421875)" opacity="1" style="display:block"><g transform="matrix(0.6156615018844604,-0.7880107760429382,0.7880107760429382,0.6156615018844604,-322.9166259765625,471.6708679199219)" opacity="1" style="display:block"><g opacity="1" transform="matrix(1,0,0,1,0,0)"><path fill="rgb(129,214,253)" fill-opacity="1" d="M307.4360046386719,613.3099975585938 C304.2489929199219,613.7789916992188 300.2980041503906,612.4030151367188 298.6109924316406,610.2340087890625 C298.6109924316406,610.2340087890625 271.4490051269531,579.1079711914062 271.4490051269531,579.1079711914062 C269.7640075683594,576.9420166015625 270.9830017089844,574.8060302734375 274.1700134277344,574.3369750976562 C274.1700134277344,574.3369750976562 323.6300048828125,567.0599975585938 323.6300048828125,567.0599975585938 C326.8169860839844,566.5910034179688 330.7669982910156,567.9669799804688 332.4519958496094,570.1329956054688 C332.4519958496094,570.1329956054688 358.593994140625,603.7440185546875 358.593994140625,603.7440185546875 C360.281005859375,605.9130249023438 359.06298828125,608.0490112304688 355.8760070800781,608.5180053710938 C355.8760070800781,608.5180053710938 307.4360046386719,613.3099975585938 307.4360046386719,613.3099975585938z"/></g><g opacity="1" transform="matrix(1,0,0,1,321.8330078125,566.3829956054688)"><path fill="rgb(35,174,244)" fill-opacity="1" d="M50.29899978637695,-9.932999610900879 C50.49399948120117,-10.685999870300293 49.81999969482422,-12.362000465393066 49.14500045776367,-13.229999542236328 C49.14500045776367,-13.229999542236328 23.825000762939453,-47.297000885009766 23.825000762939453,-47.297000885009766 C23.825000762939453,-47.297000885009766 23.82699966430664,-47.30400085449219 23.82699966430664,-47.30400085449219 C22.142000198364258,-49.470001220703125 18.191999435424805,-50.84600067138672 15.005000114440918,-50.37699890136719 C15.005000114440918,-50.37699890136719 -33.540000915527344,-41.472999572753906 -33.540000915527344,-41.472999572753906 C-35.45199966430664,-41.19200134277344 -36.654998779296875,-40.310001373291016 -36.948001861572266,-39.18199920654297 C-36.948001861572266,-39.18199920654297 -51.125,10.244000434875488 -51.125,10.244000434875488 C-50.832000732421875,9.116000175476074 -49.62799835205078,8.234000205993652 -47.715999603271484,7.953000068664551 C-47.715999603271484,7.953000068664551 1.74399995803833,0.6759999990463257 1.74399995803833,0.6759999990463257 C4.927999973297119,0.20800000429153442 8.87399959564209,1.5800000429153442 10.560999870300293,3.743000030517578 C10.560999870300293,3.743000030517578 10.559000015258789,3.75 10.559000015258789,3.75 C10.559000015258789,3.75 36.70199966430664,37.36000061035156 36.70199966430664,37.36000061035156 C37.37699890136719,38.22800064086914 37.59299850463867,39.090999603271484 37.39799880981445,39.84400177001953 C37.39799880981445,39.84400177001953 50.29899978637695,-9.932999610900879 50.29899978637695,-9.932999610900879z"/></g></g></g><g clip-path="url(#__lottie_element_21978)" transform="matrix(0.9869725704193115,0.16088877618312836,-0.16088877618312836,0.9869725704193115,59.004180908203125,-33.159393310546875)" opacity="1" style="display:block"><g transform="matrix(1,0,0,1,0,0)" opacity="1" style="display:block"><g opacity="1" transform="matrix(1,0,0,1,0,0)"><path fill="url(#__lottie_element_22040)" fill-opacity="1" d="M253.14100646972656,360.84698486328125 C253.14100646972656,360.84698486328125 427.3429870605469,296.93701171875 427.3429870605469,296.93701171875 C437.75,318.75 425,337.75 421.0169982910156,348.8429870605469 C417.03399658203125,359.9360046386719 412.239990234375,370.135986328125 408.1199951171875,379.9429931640625 C404,389.75 398.489013671875,395.864990234375 385.8739929199219,400.00299072265625 C385.8739929199219,400.00299072265625 348.8489990234375,410.8970031738281 315.135986328125,420.75799560546875 C307.85198974609375,422.88800048828125 300.7239990234375,424.97100830078125 294.156005859375,426.885009765625 C280.2590026855469,430.9339904785156 268.875,434.22698974609375 263.8590087890625,435.62701416015625 C245.5,440.75 233.24200439453125,434.7279968261719 227.80299377441406,419.1499938964844 C227.80299377441406,419.1499938964844 247.2209930419922,374.4700012207031 247.2209930419922,374.4700012207031 C247.2209930419922,374.4700012207031 253.14100646972656,360.84698486328125 253.14100646972656,360.84698486328125z M193.89100646972656,288.09698486328125 C196,278.5 204,241.5 206.84300231933594,227.68699645996094 C209.68600463867188,213.87399291992188 218.5,203 229.51699829101562,202.59300231933594 C229.51699829101562,202.59300231933594 365.8699951171875,211.4429931640625 365.8699951171875,211.4429931640625 C371.5679931640625,227.02200317382812 243.25,290.25 226.05299377441406,299.3999938964844 C208.8560028076172,308.54998779296875 192.83099365234375,318.9150085449219 192.83099365234375,318.9150085449219 C188.25,306.5 191.78199768066406,297.6940002441406 193.89100646972656,288.09698486328125z M210.64100646972656,281.34698486328125 C210.64100646972656,281.34698486328125 331.3429870605469,245.18699645996094 331.3429870605469,245.18699645996094 C346.7510070800781,240.03700256347656 358.9419860839844,249.3509979248047 364.5169982910156,264.5929870605469 C364.5169982910156,264.5929870605469 400.8699951171875,363.4429931640625 400.8699951171875,363.4429931640625 C406.5679931640625,379.0220031738281 398.489013671875,395.864990234375 385.8739929199219,400.00299072265625 C385.8739929199219,400.00299072265625 282.2179870605469,430.5039978027344 263.8590087890625,435.62701416015625 C245.5,440.75 233.24200439453125,434.7279968261719 227.80299377441406,419.1499938964844 C227.80299377441406,419.1499938964844 192.58099365234375,318.1650085449219 192.58099365234375,318.1650085449219 C187.25999450683594,302.9230041503906 195.34500122070312,286.4599914550781 210.64100646972656,281.34698486328125z"/></g></g><g transform="matrix(1,0,0,1,0,0)" opacity="1" style="display:block"><g opacity="1" transform="matrix(1,0,0,1,319.0069885253906,276.3760070800781)"><path fill="url(#__lottie_element_21985)" fill-opacity="1" d="M-88.93399810791016,-75.10199737548828 C-88.93399810791016,-75.10199737548828 33.47200012207031,-106.18299865722656 33.47200012207031,-106.18299865722656 C51.59299850463867,-111.84500122070312 65.62200164794922,-100.68099975585938 71.78399658203125,-82.74500274658203 C71.78399658203125,-82.74500274658203 110.64399719238281,27.131000518798828 110.64399719238281,27.131000518798828 C116.94200134277344,45.4640007019043 107.11399841308594,64.95500183105469 92.27999877929688,69.4990005493164 C92.27999877929688,69.4990005493164 -25.33099937438965,105.60199737548828 -25.33099937438965,105.60199737548828 C-47.20500183105469,112.32599639892578 -66.88899993896484,101.97799682617188 -72.88400268554688,83.6520004272461 C-72.88400268554688,83.6520004272461 -110.88400268554688,-32.50199890136719 -110.88400268554688,-32.50199890136719 C-116.75,-50.43199920654297 -106.9229965209961,-69.48200225830078 -88.93399810791016,-75.10199737548828z"/></g></g><g transform="matrix(1,0,0,1,540,540)" opacity="1" style="display:block"><path fill="rgb(137,226,25)" fill-opacity="1" d="M-161.625,-351.625 C-167.5,-350 -178.33399963378906,-347.3800048828125 -182.875,-345.75 C-187.75,-344 -189.25,-339.5 -188.25,-336 C-187.85800170898438,-334.6300048828125 -187.24400329589844,-332.6629943847656 -186.875,-331.125 C-186.125,-328 -189.625,-326.125 -192.125,-325.375 C-194.625,-324.625 -199.78599548339844,-323.0039978027344 -203.625,-321.875 C-216.375,-318.125 -220.125,-307.125 -217.75,-299.125 C-217.23199462890625,-297.3800048828125 -216.875,-296.375 -216.375,-295 C-215.375,-292.25 -217.25,-290.25 -219.5,-289.375 C-221.75,-288.5 -233.25,-284.875 -236.75,-283.75 C-240.25,-282.625 -242.125,-285.25 -242.75,-286.75 C-243.375,-288.25 -244.01199340820312,-289.489013671875 -245,-292 C-248,-299.625 -258.25,-304.875 -268.375,-301.625 C-271.4989929199219,-300.62200927734375 -280.375,-297.5 -283.75,-296.375 C-287.125,-295.25 -288.9200134277344,-297.3160095214844 -289.5,-299.25 C-289.875,-300.5 -290.2659912109375,-301.6759948730469 -290.875,-303 C-293.75,-309.25 -299.125,-309.5 -303.25,-308.375 C-307.375,-307.25 -317.5,-304 -322,-302.5 C-326.5,-301 -332.25,-297.875 -328.875,-287.125 C-324.97900390625,-274.7170104980469 -306.125,-217.875 -302,-205.125 C-297.875,-192.375 -289.125,-186.625 -276,-190.5 C-262.875,-194.375 -246.3679962158203,-199.35499572753906 -233.75,-203.75 C-222.625,-207.625 -220.625,-218.125 -223.75,-228 C-225.1699981689453,-232.48599243164062 -226,-235 -226,-235 C-226,-235 -199,-243.5 -199,-243.5 C-199,-243.5 -197.75,-239.875 -196.25,-235.375 C-193.01100158691406,-225.65899658203125 -184.875,-218.875 -171.875,-222.75 C-158.875,-226.625 -141.5,-231.625 -130.625,-235.125 C-120.16300201416016,-238.49200439453125 -114.5,-248.75 -118.125,-259.25 C-121.75,-269.75 -144.25,-333.125 -147.5,-342.625 C-150.75,-352.125 -155.75,-353.25 -161.625,-351.625z"/></g><g clip-path="url(#__lottie_element_22028)" transform="matrix(1,0,0,1,0,0)" opacity="1" style="display:block"><g transform="matrix(1,0,0,1,0,0)" opacity="1" style="display:block"><path fill="rgb(255,255,255)" fill-opacity="1" d="M342.0790100097656,230.89500427246094 C342.0790100097656,230.89500427246094 374.04400634765625,220.96400451660156 374.04400634765625,220.96400451660156 C379.6619873046875,219.21800231933594 385.7619934082031,222.31500244140625 387.6679992675781,227.88400268554688 C387.6679992675781,227.88400268554688 405.56201171875,280.1679992675781 405.56201171875,280.1679992675781 C407.4859924316406,285.7900085449219 404.46099853515625,291.7659912109375 398.80499267578125,293.510986328125 C398.80499267578125,293.510986328125 366.6300048828125,303.43701171875 366.6300048828125,303.43701171875 C360.9859924316406,305.1780090332031 354.87200927734375,302.02801513671875 352.9750061035156,296.4070129394531 C352.9750061035156,296.4070129394531 335.3299865722656,244.1280059814453 335.3299865722656,244.1280059814453 C333.45001220703125,238.5590057373047 336.47198486328125,232.63699340820312 342.0790100097656,230.89500427246094z"/></g></g><g mask="url(#__lottie_element_22017_1)" style="display:block"><g transform="matrix(1,0,0,1,0,0)" opacity="1"><path fill="rgb(64,66,66)" fill-opacity="1" d="M343.85101318359375,258.1669921875 C341.90301513671875,258.7699890136719 340.8349914550781,260.8559875488281 341.47698974609375,262.802001953125 C341.47698974609375,262.802001953125 347.3970031738281,280.7359924316406 347.3970031738281,280.7359924316406 C348.84600830078125,285.125 353.62701416015625,287.6059875488281 358.0220031738281,286.24798583984375 C358.0220031738281,286.24798583984375 374.5870056152344,281.1310119628906 374.5870056152344,281.1310119628906 C378.99200439453125,279.7699890136719 381.39801025390625,275.05999755859375 379.9339904785156,270.6650085449219 C379.9339904785156,270.6650085449219 369.9909973144531,240.80799865722656 369.9909973144531,240.80799865722656 C368.5360107421875,236.43899536132812 363.7650146484375,233.9759979248047 359.3890075683594,235.33399963378906 C359.3890075683594,235.33399963378906 353.35198974609375,237.20700073242188 353.35198974609375,237.20700073242188 C351.406005859375,237.81100463867188 350.3399963378906,239.89599609375 350.9840087890625,241.83999633789062 C350.9840087890625,241.83999633789062 353.97900390625,250.875 353.97900390625,250.875 C354.6659851074219,252.94700622558594 353.5299987792969,255.16799926757812 351.4549865722656,255.81100463867188 C351.4549865722656,255.81100463867188 343.85101318359375,258.1669921875 343.85101318359375,258.1669921875z"/></g></g><g clip-path="url(#__lottie_element_22011)" transform="matrix(1,0,0,1,0,0)" opacity="1" style="display:block"><g transform="matrix(1,0,0,1,0,0)" opacity="1" style="display:block"><path fill="rgb(255,255,255)" fill-opacity="1" d="M239.81100463867188,262.5559997558594 C239.81100463867188,262.5559997558594 271.7749938964844,252.625 271.7749938964844,252.625 C277.39300537109375,250.87899780273438 283.4930114746094,253.9759979248047 285.39898681640625,259.5450134277344 C285.39898681640625,259.5450134277344 303.2929992675781,311.8280029296875 303.2929992675781,311.8280029296875 C305.2170104980469,317.45001220703125 302.1929931640625,323.427001953125 296.5369873046875,325.1719970703125 C296.5369873046875,325.1719970703125 264.3609924316406,335.0979919433594 264.3609924316406,335.0979919433594 C258.7170104980469,336.8389892578125 252.60400390625,333.6889953613281 250.70700073242188,328.0679931640625 C250.70700073242188,328.0679931640625 233.06199645996094,275.78900146484375 233.06199645996094,275.78900146484375 C231.1820068359375,270.2200012207031 234.20399475097656,264.2980041503906 239.81100463867188,262.5559997558594z"/></g></g><g mask="url(#__lottie_element_22000_1)" style="display:block"><g transform="matrix(1,0,0,1,0,0)" opacity="1"><path fill="rgb(64,66,66)" fill-opacity="1" d="M261.7619934082031,284.2669982910156 C259.8139953613281,284.8699951171875 258.7460021972656,286.95599365234375 259.38800048828125,288.9020080566406 C259.38800048828125,288.9020080566406 265.3089904785156,306.83599853515625 265.3089904785156,306.83599853515625 C266.75799560546875,311.2250061035156 271.5379943847656,313.70599365234375 275.9330139160156,312.3479919433594 C275.9330139160156,312.3479919433594 292.49798583984375,307.2309875488281 292.49798583984375,307.2309875488281 C296.90301513671875,305.8699951171875 299.30999755859375,301.1600036621094 297.84600830078125,296.7650146484375 C297.84600830078125,296.7650146484375 287.9020080566406,266.9079895019531 287.9020080566406,266.9079895019531 C286.4469909667969,262.53900146484375 281.6759948730469,260.07598876953125 277.29998779296875,261.4339904785156 C277.29998779296875,261.4339904785156 271.26300048828125,263.3070068359375 271.26300048828125,263.3070068359375 C269.3160095214844,263.9110107421875 268.25201416015625,265.9960021972656 268.89599609375,267.94000244140625 C268.89599609375,267.94000244140625 271.8909912109375,276.9750061035156 271.8909912109375,276.9750061035156 C272.5780029296875,279.0469970703125 271.4419860839844,281.26800537109375 269.36700439453125,281.9110107421875 C269.36700439453125,281.9110107421875 261.7619934082031,284.2669982910156 261.7619934082031,284.2669982910156z"/></g></g><g transform="matrix(1,0,0,1,-0.00012325805437285453,-0.0002829391451086849)" opacity="1" style="display:block"><path fill="rgb(244,128,0)" fill-opacity="1" d="M317.947998046875,290.406005859375 C317.947998046875,290.406005859375 330.73199462890625,286.6390075683594 330.73199462890625,286.6390075683594 C334.9519958496094,285.3949890136719 339.4729919433594,287.8009948730469 340.8290100097656,292.01300048828125 C340.8290100097656,292.01300048828125 348.98699951171875,317.44000244140625 348.98699951171875,317.44000244140625 C350.3450012207031,321.6600036621094 348.0190124511719,326.0920104980469 343.7900085449219,327.3349914550781 C343.7900085449219,327.3349914550781 330.9800109863281,331.10101318359375 330.9800109863281,331.10101318359375 C326.7550048828125,332.3429870605469 322.23699951171875,329.927001953125 320.8890075683594,325.7070007324219 C320.8890075683594,325.7070007324219 312.75,300.2799987792969 312.75,300.2799987792969 C311.40399169921875,296.0679931640625 313.7309875488281,291.64801025390625 317.947998046875,290.406005859375z"/></g><g transform="matrix(1,0,0,1,-0.000008299981345771812,-0.0001568896695971489)" opacity="1" style="display:block"><path fill="rgb(150,54,0)" fill-opacity="1" d="M322.7879943847656,291.1629943847656 C322.7879943847656,291.1629943847656 329.6809997558594,288.77398681640625 329.6809997558594,288.77398681640625 C332.4440002441406,287.7909851074219 335.4590148925781,289.5199890136719 336.4169921875,292.614990234375 C336.4169921875,292.614990234375 343.0409851074219,315.4490051269531 343.0409851074219,315.4490051269531 C343.9570007324219,318.406005859375 342.5350036621094,321.5799865722656 339.864990234375,322.5580139160156 C339.864990234375,322.5580139160156 333.2139892578125,324.9419860839844 333.2139892578125,324.9419860839844 C330.5220031738281,325.9280090332031 327.54901123046875,324.34600830078125 326.5719909667969,321.38800048828125 C326.5719909667969,321.38800048828125 319.5920104980469,298.5840148925781 319.5920104980469,298.5840148925781 C318.5710144042969,295.4859924316406 320.0010070800781,292.15399169921875 322.7879943847656,291.1629943847656z"/></g><g transform="matrix(1,0,0,1,-0.000008299981345771812,-0.0001568896695971489)" opacity="1" style="display:block"><path fill="rgb(255,169,227)" fill-opacity="1" d="M339.864990234375,322.5580139160156 C342.5350036621094,321.5799865722656 343.9570007324219,318.406005859375 343.0409851074219,315.4490051269531 C343.0409851074219,315.4490051269531 335.0849914550781,304.9960021972656 322.89300537109375,309.3680114746094 C322.89300537109375,309.3680114746094 326.5719909667969,321.38800048828125 326.5719909667969,321.38800048828125 C327.54901123046875,324.34600830078125 330.5220031738281,325.9280090332031 333.2139892578125,324.9419860839844 C333.2139892578125,324.9419860839844 339.864990234375,322.5580139160156 339.864990234375,322.5580139160156z"/></g><g transform="matrix(1,0,0,1,0.00008560286369174719,0.000006833702173025813)" opacity="1" style="display:block"><path fill="rgb(255,194,0)" fill-opacity="1" d="M319.7929992675781,284.64599609375 C319.7929992675781,284.64599609375 308.6709899902344,297.6499938964844 308.6709899902344,297.6499938964844 C308.29400634765625,298.94500732421875 309.6109924316406,301.3590087890625 310.968994140625,301.2349853515625 C310.968994140625,301.2349853515625 331.0119934082031,298.135009765625 331.0119934082031,298.135009765625 C331.260986328125,298.11199951171875 331.50299072265625,298.0409851074219 331.72198486328125,297.9259948730469 C331.72198486328125,297.9259948730469 342.6369934082031,291.69000244140625 342.6369934082031,291.69000244140625 C343.8179931640625,291.07000732421875 343.7380065917969,288.3290100097656 342.7019958496094,287.447998046875 C342.7019958496094,287.447998046875 327.7640075683594,282.20098876953125 327.7640075683594,282.20098876953125 C327.156005859375,281.9070129394531 326.46099853515625,281.85699462890625 325.8179931640625,282.06298828125 C325.8179931640625,282.06298828125 321.22698974609375,283.531005859375 321.22698974609375,283.531005859375 C320.63299560546875,283.72100830078125 320.1260070800781,284.1159973144531 319.7929992675781,284.64599609375z"/></g></g></g></svg>