<svg xmlns="http://www.w3.org/2000/svg" xmlns:xlink="http://www.w3.org/1999/xlink" viewBox="0 0 1080 1080" preserveAspectRatio="xMidYMid meet"><defs><clipPath id="__lottie_element_21056"><rect width="1080" height="1080" x="0" y="0"/></clipPath><clipPath id="__lottie_element_21076"><path d="M0,0 L1080,0 L1080,1080 L0,1080z"/></clipPath><g id="__lottie_element_21082"><g transform="matrix(1,0,0,1,0,0)" opacity="1" style="display:block"><g opacity="1" transform="matrix(1,0,0,1,540,540)"><path fill="url(#__lottie_element_21085)" fill-opacity="1" d="M-17.59000015258789,-194.75 C-17.59000015258789,-194.75 -41.14899826049805,-175.58999633789062 -41.14899826049805,-175.58999633789062 C-44.23699951171875,-173.08099365234375 -48.233001708984375,-172.00999450683594 -52.154998779296875,-172.63800048828125 C-52.154998779296875,-172.63800048828125 -82.13999938964844,-177.4550018310547 -82.13999938964844,-177.4550018310547 C-95.18199920654297,-179.552001953125 -107.9020004272461,-172.20599365234375 -112.60800170898438,-159.8679962158203 C-112.60800170898438,-159.8679962158203 -123.4280014038086,-131.48599243164062 -123.4280014038086,-131.48599243164062 C-124.84100341796875,-127.7760009765625 -127.77100372314453,-124.84400177001953 -131.48199462890625,-123.43099975585938 C-131.48199462890625,-123.43099975585938 -159.86300659179688,-112.60600280761719 -159.86300659179688,-112.60600280761719 C-172.2010040283203,-107.90599822998047 -179.54600524902344,-95.18599700927734 -177.4499969482422,-82.14399719238281 C-177.4499969482422,-82.14399719238281 -172.63299560546875,-52.159000396728516 -172.63299560546875,-52.159000396728516 C-172.0050048828125,-48.236000061035156 -173.0760040283203,-44.22999954223633 -175.5850067138672,-41.15299987792969 C-175.5850067138672,-41.15299987792969 -194.74600219726562,-17.590999603271484 -194.74600219726562,-17.590999603271484 C-198.8679962158203,-12.529000282287598 -200.94900512695312,-6.380000114440918 -201,-0.2160000056028366 C-201,-0.2160000056028366 -201,0.2160000056028366 -201,0.2160000056028366 C-200.94900512695312,6.380000114440918 -198.8679962158203,12.52400016784668 -194.74600219726562,17.586999893188477 C-194.74600219726562,17.586999893188477 -175.5850067138672,41.152000427246094 -175.5850067138672,41.152000427246094 C-173.0760040283203,44.22999954223633 -172.0050048828125,48.236000061035156 -172.63299560546875,52.15299987792969 C-172.63299560546875,52.15299987792969 -177.4499969482422,82.13800048828125 -177.4499969482422,82.13800048828125 C-179.54600524902344,95.18099975585938 -172.2010040283203,107.89600372314453 -159.86300659179688,112.60600280761719 C-159.86300659179688,112.60600280761719 -131.48199462890625,123.4209976196289 -131.48199462890625,123.4209976196289 C-127.77100372314453,124.84400177001953 -124.84100341796875,127.7760009765625 -123.4280014038086,131.4810028076172 C-123.4280014038086,131.4810028076172 -112.60800170898438,159.86199951171875 -112.60800170898438,159.86199951171875 C-107.9020004272461,172.2010040283203 -95.18199920654297,179.54600524902344 -82.13999938964844,177.4550018310547 C-82.13999938964844,177.4550018310547 -52.154998779296875,172.63299560546875 -52.154998779296875,172.63299560546875 C-48.233001708984375,172.00399780273438 -44.23699951171875,173.08099365234375 -41.14899826049805,175.5850067138672 C-41.14899826049805,175.5850067138672 -17.59000015258789,194.74600219726562 -17.59000015258789,194.74600219726562 C-12.527000427246094,198.8679962158203 -6.376999855041504,200.94900512695312 -0.21899999678134918,201 C-0.21899999678134918,201 0.21899999678134918,201 0.21899999678134918,201 C6.376999855041504,200.94900512695312 12.526000022888184,198.8679962158203 17.59000015258789,194.74600219726562 C17.59000015258789,194.74600219726562 41.14899826049805,175.5850067138672 41.14899826049805,175.5850067138672 C44.22600173950195,173.08099365234375 48.22800064086914,172.00399780273438 52.150001525878906,172.63299560546875 C52.150001525878906,172.63299560546875 82.13999938964844,177.4550018310547 82.13999938964844,177.4550018310547 C95.18099975585938,179.54600524902344 107.89700317382812,172.2010040283203 112.60299682617188,159.86199951171875 C112.60299682617188,159.86199951171875 123.4219970703125,131.4810028076172 123.4219970703125,131.4810028076172 C124.84100341796875,127.7760009765625 127.77100372314453,124.84400177001953 131.48199462890625,123.4209976196289 C131.48199462890625,123.4209976196289 159.86300659179688,112.60600280761719 159.86300659179688,112.60600280761719 C172.1959991455078,107.89600372314453 179.54600524902344,95.18099975585938 177.44500732421875,82.13800048828125 C177.44500732421875,82.13800048828125 172.63400268554688,52.15299987792969 172.63400268554688,52.15299987792969 C172.0050048828125,48.236000061035156 173.0760040283203,44.22999954223633 175.5850067138672,41.152000427246094 C175.5850067138672,41.152000427246094 194.74600219726562,17.586999893188477 194.74600219726562,17.586999893188477 C198.8679962158203,12.52400016784668 200.94900512695312,6.375999927520752 201,0.2160000056028366 C201,0.2160000056028366 201,-0.2160000056028366 201,-0.2160000056028366 C200.94900512695312,-6.375999927520752 198.8679962158203,-12.529000282287598 194.74600219726562,-17.590999603271484 C194.74600219726562,-17.590999603271484 175.5850067138672,-41.15299987792969 175.5850067138672,-41.15299987792969 C173.0760040283203,-44.22999954223633 172.0050048828125,-48.236000061035156 172.63400268554688,-52.159000396728516 C172.63400268554688,-52.159000396728516 177.44500732421875,-82.14399719238281 177.44500732421875,-82.14399719238281 C179.54600524902344,-95.18599700927734 172.1959991455078,-107.90599822998047 159.86300659179688,-112.60600280761719 C159.86300659179688,-112.60600280761719 131.48199462890625,-123.43099975585938 131.48199462890625,-123.43099975585938 C127.77100372314453,-124.84400177001953 124.84100341796875,-127.7760009765625 123.4219970703125,-131.48599243164062 C123.4219970703125,-131.48599243164062 112.60299682617188,-159.8679962158203 112.60299682617188,-159.8679962158203 C107.89700317382812,-172.20599365234375 95.18099975585938,-179.552001953125 82.13999938964844,-177.4550018310547 C82.13999938964844,-177.4550018310547 52.150001525878906,-172.63800048828125 52.150001525878906,-172.63800048828125 C48.22800064086914,-172.00999450683594 44.22600173950195,-173.08099365234375 41.14899826049805,-175.58999633789062 C41.14899826049805,-175.58999633789062 17.59000015258789,-194.75 17.59000015258789,-194.75 C12.465999603271484,-198.91900634765625 6.23199987411499,-201 -0.003000000026077032,-201 C-6.23199987411499,-201 -12.465999603271484,-198.91900634765625 -17.59000015258789,-194.75z"/></g></g></g><linearGradient id="__lottie_element_21085" spreadMethod="pad" gradientUnits="userSpaceOnUse" x1="-142.45700073242188" y1="-144.75799560546875" x2="141.1909942626953" y2="147.92999267578125"><stop offset="0%" stop-color="rgb(255,193,0)"/><stop offset="50%" stop-color="rgb(255,178,0)"/><stop offset="100%" stop-color="rgb(255,163,0)"/></linearGradient><mask id="__lottie_element_21087"><rect fill="#ffffff" width="1080" height="1080"/><path fill="#000000" clip-rule="nonzero" d="M-120.00299835205078,21.34000015258789 C-120.00299835205078,21.34000015258789 -12.26200008392334,-16.7549991607666 -12.26200008392334,-16.7549991607666 C-6.660999774932861,-18.905000686645508 -0.5920000076293945,-14.961999893188477 -0.27399998903274536,-8.970000267028809 C1.25,19.822999954223633 -14.633999824523926,48.779998779296875 -42.2400016784668,59.37300109863281 C-69.84700012207031,69.96600341796875 -100.80899810791016,61.56100082397461 -118.94999694824219,39.14400100708008 C-122.7249984741211,34.47999954223633 -125.60299682617188,23.48900032043457 -120.00299835205078,21.34000015258789"/><path fill="#000000" clip-rule="nonzero" d="M67.00900268554688,-109.01899719238281 C67.00900268554688,-109.01899719238281 -6.531000137329102,-20.29400062561035 -6.531000137329102,-20.29400062561035 C-10.465999603271484,-15.765000343322754 -8.838000297546387,-8.713000297546387 -3.315000057220459,-6.366000175476074 C23.219999313354492,4.914000034332275 55.99700164794922,-0.20100000500679016 75.39299774169922,-22.520000457763672 C94.78900146484375,-44.8380012512207 98.6050033569336,-77.68299865722656 83.74600219726562,-102.39700317382812 C80.65299987792969,-107.54000091552734 70.94499969482422,-113.5469970703125 67.00900268554688,-109.01899719238281"/><path fill="#000000" clip-rule="nonzero" d="M115.52899932861328,1.5679999589920044 C108.78900146484375,0.10700000077486038 102.64199829101562,6.894000053405762 101.18399810791016,13.635000228881836 C101.1780014038086,13.663000106811523 101.1719970703125,13.690999984741211 101.16600036621094,13.718999862670898 C101.16600036621094,13.718999862670898 95.36799621582031,32.84600067138672 95.36799621582031,32.84600067138672 C93.94599914550781,39.65800094604492 99.75,46.75 109.33899688720703,49.0620002746582 C116.04399871826172,50.67900085449219 122.72599792480469,46.237998962402344 124.18299865722656,39.49700164794922 C124.18900299072266,39.46799850463867 124.19599914550781,39.439998626708984 124.20099639892578,39.4109992980957 C124.20099639892578,39.4109992980957 128.24899291992188,20.035999298095703 128.24899291992188,20.035999298095703 C129.6719970703125,13.222999572753906 126.75,4 115.52899932861328,1.5679999589920044"/><path fill="#000000" clip-rule="nonzero" d="M-83.45700073242188,-55.37200164794922 C-62.8129997253418,-59.77000045776367 -49.542999267578125,-64.03500366210938 -43.645999908447266,-68.16400146484375 C-37.7869987487793,-72.26599884033203 -29.384000778198242,-83.11199951171875 -18.43600082397461,-100.69999694824219 C-11.116000175476074,-112.46199798583984 4.3520002365112305,-116.06099700927734 16.11400032043457,-108.74099731445312 C18.985000610351562,-106.9530029296875 21.465999603271484,-104.60399627685547 23.4060001373291,-101.83300018310547 C23.4060001373291,-101.83300018310547 73.00900268554688,-36.26499938964844 73.00900268554688,-36.26499938964844 C96.61799621582031,-2.5480000972747803 84.9229965209961,44.055999755859375 51.207000732421875,67.66500091552734 C17.48900032043457,91.2750015258789 -30.847999572753906,84.71600341796875 -54.457000732421875,50.999000549316406 C-54.457000732421875,50.999000549316406 -83.5260009765625,3.2980000972747803 -83.5260009765625,3.2980000972747803 C-91.47200012207031,-8.050000190734863 -103.96399688720703,-43.439998626708984 -92.61599731445312,-51.387001037597656 C-89.86100006103516,-53.314998626708984 -86.74600219726562,-54.66999816894531 -83.45700073242188,-55.37200164794922"/><path fill="#000000" clip-rule="nonzero" d="M-32.191001892089844,105.38800048828125 C-31.402000427246094,98.53800201416016 -23.707000732421875,95.5250015258789 -16.874000549316406,96.46099853515625 C-16.844999313354492,96.46499633789062 -16.81599998474121,96.46900177001953 -16.78700065612793,96.4729995727539 C-16.78700065612793,96.4729995727539 2.303999900817871,96.2969970703125 2.303999900817871,96.2969970703125 C9.192999839782715,97.28900146484375 14.48900032043457,107.65499877929688 13.545000076293945,114.54900360107422 C12.607999801635742,121.38300323486328 6.310999870300293,126.16300201416016 -0.5220000147819519,125.22699737548828 C-0.5509999990463257,125.2229995727539 -0.5799999833106995,125.21900177001953 -0.609000027179718,125.21499633789062 C-0.609000027179718,125.21499633789062 -20.200000762939453,122.39199829101562 -20.200000762939453,122.39199829101562 C-27.089000701904297,121.39800262451172 -33.5,116.75 -32.191001892089844,105.38800048828125"/></mask><mask id="__lottie_element_21082_1" mask-type="alpha"><use xlink:href="#__lottie_element_21082"/></mask><linearGradient id="__lottie_element_21092" spreadMethod="pad" gradientUnits="userSpaceOnUse" x1="-142.45700073242188" y1="-144.75799560546875" x2="141.1909942626953" y2="147.92999267578125"><stop offset="0%" stop-color="rgb(255,193,0)"/><stop offset="50%" stop-color="rgb(255,178,0)"/><stop offset="100%" stop-color="rgb(255,163,0)"/></linearGradient></defs><g clip-path="url(#__lottie_element_21056)"><g transform="matrix(1,0,0,1,540,540)" opacity="1" style="display:block"><g opacity="1" transform="matrix(1,0,0,1,0,0)"><path fill="rgb(255,151,0)" fill-opacity="1" d="M19,325.25 C18.658000946044922,316.697998046875 -52.25,326 -52.25,326 C-52.25,326 -336.947998046875,389.37200927734375 -336,407.375 C-335.625,414.5 -332.8280029296875,415.62799072265625 -325.375,421.875 C-316.875,429 -304.25,441.625 -291.5,438.125 C-278.75,434.625 -29.5,371.25 -4.75,364.5 C10.819999694824219,360.2539978027344 15.375,356.25 16.84000015258789,345.0580139160156 C17.59600067138672,339.2860107421875 19.125,328.375 19,325.25z"/></g><g opacity="1" transform="matrix(1.0387471914291382,-0.2572178542613983,0.2572178542613983,1.0387471914291382,-201.24000549316406,226.19900512695312)"><path fill="rgb(255,179,74)" fill-opacity="1" d="M106.64700317382812,-116.2300033569336 C106.64700317382812,-116.2300033569336 177.33999633789062,132.82400512695312 177.33999633789062,132.82400512695312 C179.39999389648438,140.75599670410156 174.86300659179688,151.5330047607422 161.5570068359375,151.76600646972656 C161.5570068359375,151.76600646972656 -145.13999938964844,153.12399291992188 -145.13999938964844,153.12399291992188 C-157.36500549316406,153.3800048828125 -164.27099609375,142.1909942626953 -162.88999938964844,133.3040008544922 C-162.88999938964844,133.3040008544922 -105.36799621582031,-123.9280014038086 -105.36799621582031,-123.9280014038086 C-103.90899658203125,-132.77499389648438 -97.86299896240234,-140.5500030517578 -89.36799621582031,-139.92799377441406 C-89.36799621582031,-139.92799377441406 90.64800262451172,-132.22999572753906 90.64800262451172,-132.22999572753906 C99.68299865722656,-130.64500427246094 104.12100219726562,-125.16699981689453 106.64700317382812,-116.2300033569336z"/></g><g opacity="1" transform="matrix(0.9706829190254211,-0.24036358296871185,0.24036358296871185,0.9706829190254211,-201.47300720214844,224.74200439453125)"><path fill="rgb(255,255,255)" fill-opacity="1" d="M105.1719970703125,-117.0770034790039 C105.1719970703125,-117.0770034790039 177.33999633789062,132.82400512695312 177.33999633789062,132.82400512695312 C179.39999389648438,140.75599670410156 169.9340057373047,148.76400756835938 161.0970001220703,148.76400756835938 C161.0970001220703,148.76400756835938 -144.5240020751953,150.1479949951172 -144.5240020751953,150.1479949951172 C-154.91600036621094,150.1750030517578 -164.27099609375,142.1909942626953 -162.88999938964844,133.3040008544922 C-162.88999938964844,133.3040008544922 -104.80699920654297,-126.19499969482422 -104.80699920654297,-126.19499969482422 C-103.3479995727539,-135.04200744628906 -97.302001953125,-142.81700134277344 -88.80699920654297,-142.19500732421875 C-88.80699920654297,-142.19500732421875 89.1729965209961,-133.07699584960938 89.1729965209961,-133.07699584960938 C98.20800018310547,-131.49200439453125 102.64600372314453,-126.01399993896484 105.1719970703125,-117.0770034790039z"/></g><g opacity="1" transform="matrix(0.9998670816421509,-0.2534509599208832,0.2030797004699707,0.8011518716812134,-171.65199279785156,324.29400634765625)"><path fill="rgb(136,233,45)" fill-opacity="1" d="M140.5189971923828,-13.87600040435791 C140.5189971923828,-13.87600040435791 146.55099487304688,11.817999839782715 146.55099487304688,11.817999839782715 C148.58200073242188,21.98699951171875 141.0189971923828,27.093000411987305 133.83900451660156,27.093000411987305 C133.83900451660156,27.093000411987305 -133.98599243164062,27.32699966430664 -133.98599243164062,27.32699966430664 C-141.16600036621094,27.32699966430664 -148.0070037841797,21.615999221801758 -146.30299377441406,11.57800006866455 C-146.30299377441406,11.57800006866455 -141.45700073242188,-15.354999542236328 -141.45700073242188,-15.354999542236328 C-139.86500549316406,-23.395000457763672 -135.19900512695312,-27.43600082397461 -128.0189971923828,-27.43600082397461 C-128.0189971923828,-27.43600082397461 126.95999908447266,-26.584999084472656 126.95999908447266,-26.584999084472656 C134.13999938964844,-26.584999084472656 138.14599609375,-22.03700065612793 140.5189971923828,-13.87600040435791z"/></g></g><g transform="matrix(1,0,0,1,535.750244140625,536.2504272460938)" opacity="1" style="display:block"><g opacity="1" transform="matrix(1,0,0,1,-230.82200622558594,124.29399871826172)"><path fill="rgb(160,90,57)" fill-opacity="1" d="M17.427499771118164,0 C17.427499771118164,0 17.427499771118164,0 17.427499771118164,0 C17.427499771118164,6.270135879516602 12.33663558959961,11.361000061035156 6.066499710083008,11.361000061035156 C6.066499710083008,11.361000061035156 -6.066499710083008,11.361000061035156 -6.066499710083008,11.361000061035156 C-12.33663558959961,11.361000061035156 -17.427499771118164,6.270135879516602 -17.427499771118164,0 C-17.427499771118164,0 -17.427499771118164,0 -17.427499771118164,0 C-17.427499771118164,-6.270135879516602 -12.33663558959961,-11.361000061035156 -6.066499710083008,-11.361000061035156 C-6.066499710083008,-11.361000061035156 6.066499710083008,-11.361000061035156 6.066499710083008,-11.361000061035156 C12.33663558959961,-11.361000061035156 17.427499771118164,-6.270135879516602 17.427499771118164,0z"/></g></g><g transform="matrix(-0.7986355423927307,-0.6018149852752686,0.6018149852752686,-0.7986355423927307,60.91375732421875,560.2966918945312)" opacity="1" style="display:block"><g opacity="1" transform="matrix(1,0,0,1,-237.6649932861328,81.99400329589844)"><path fill="rgb(160,90,57)" fill-opacity="1" d="M34.83549880981445,0 C34.83549880981445,0 34.83549880981445,0 34.83549880981445,0 C34.83549880981445,9.516687393188477 27.108686447143555,17.243499755859375 17.591999053955078,17.243499755859375 C17.591999053955078,17.243499755859375 -17.591999053955078,17.243499755859375 -17.591999053955078,17.243499755859375 C-27.108686447143555,17.243499755859375 -34.83549880981445,9.516687393188477 -34.83549880981445,0 C-34.83549880981445,0 -34.83549880981445,0 -34.83549880981445,0 C-34.83549880981445,-9.516687393188477 -27.108686447143555,-17.243499755859375 -17.591999053955078,-17.243499755859375 C-17.591999053955078,-17.243499755859375 17.591999053955078,-17.243499755859375 17.591999053955078,-17.243499755859375 C27.108686447143555,-17.243499755859375 34.83549880981445,-9.516687393188477 34.83549880981445,0z"/></g></g><g transform="matrix(0.9612616896629333,-0.27563735842704773,0.27563735842704773,0.9612616896629333,507.87945556640625,477.6775207519531)" opacity="1" style="display:block"><g opacity="1" transform="matrix(1,0,0,1,-237.66500854492188,81.9939956665039)"><path fill="rgb(176,108,76)" fill-opacity="1" d="M42.1150016784668,0.07000000029802322 C42.1150016784668,9.593000411987305 34.39500045776367,17.31399917602539 24.871999740600586,17.31399917602539 C24.871999740600586,17.31399917602539 -17.591999053955078,17.243999481201172 -17.591999053955078,17.243999481201172 C-27.114999771118164,17.243999481201172 -34.834999084472656,9.52299976348877 -34.834999084472656,0 C-34.834999084472656,-9.52299976348877 -27.114999771118164,-17.243999481201172 -17.591999053955078,-17.243999481201172 C-17.591999053955078,-17.243999481201172 24.871999740600586,-17.17300033569336 24.871999740600586,-17.17300033569336 C34.39500045776367,-17.17300033569336 42.1150016784668,-9.45300006866455 42.1150016784668,0.07000000029802322z"/></g><g opacity="1" transform="matrix(1,0,0,1,-237.66500854492188,81.9939956665039)"><path fill="rgb(160,90,57)" fill-opacity="1" d="M42.1150016784668,0.07000000029802322 C42.1150016784668,9.593000411987305 34.77199935913086,17.812000274658203 25.249000549316406,17.812000274658203 C25.249000549316406,17.812000274658203 -17.21500015258789,17.742000579833984 -17.21500015258789,17.742000579833984 C-26.738000869750977,17.742000579833984 -34.834999084472656,9.52299976348877 -34.834999084472656,0 C-30.655000686645508,3.428999900817871 -26.930999755859375,5.696000099182129 -17.408000946044922,5.696000099182129 C-17.408000946044922,5.696000099182129 25.055999755859375,5.765999794006348 25.055999755859375,5.765999794006348 C34.57899856567383,5.765999794006348 38.4010009765625,5.675000190734863 42.1150016784668,0.07000000029802322z"/></g></g><g transform="matrix(0.9975640773773193,-0.06975647062063217,0.06975647062063217,0.9975640773773193,522.1064453125,529.474609375)" opacity="1" style="display:block"><g opacity="1" transform="matrix(1,0,0,1,-147.0590057373047,249.58700561523438)"><path fill="rgb(255,75,75)" fill-opacity="1" d="M8.691499710083008,-7.039999961853027 C8.691499710083008,-7.039999961853027 8.691499710083008,7.039999961853027 8.691499710083008,7.039999961853027 C8.691499710083008,11.836838722229004 4.796838760375977,15.731499671936035 0,15.731499671936035 C0,15.731499671936035 0,15.731499671936035 0,15.731499671936035 C-4.796838760375977,15.731499671936035 -8.691499710083008,11.836838722229004 -8.691499710083008,7.039999961853027 C-8.691499710083008,7.039999961853027 -8.691499710083008,-7.039999961853027 -8.691499710083008,-7.039999961853027 C-8.691499710083008,-11.836838722229004 -4.796838760375977,-15.731499671936035 0,-15.731499671936035 C0,-15.731499671936035 0,-15.731499671936035 0,-15.731499671936035 C4.796838760375977,-15.731499671936035 8.691499710083008,-11.836838722229004 8.691499710083008,-7.039999961853027z"/></g></g><g transform="matrix(1,0,0,1,540,540)" opacity="1" style="display:block"><g opacity="1" transform="matrix(0.9922670722007751,-0.1241210401058197,0.1241210401058197,0.9922670722007751,-153.71600341796875,220.1999969482422)"><path fill="rgb(76,197,255)" fill-opacity="1" d="M20.861000061035156,-5.499000549316406 C20.861000061035156,-5.499000549316406 20.861000061035156,5.499000549316406 20.861000061035156,5.499000549316406 C20.861000061035156,17.01218605041504 11.513185501098633,26.360000610351562 0,26.360000610351562 C0,26.360000610351562 0,26.360000610351562 0,26.360000610351562 C-11.513185501098633,26.360000610351562 -20.861000061035156,17.01218605041504 -20.861000061035156,5.499000549316406 C-20.861000061035156,5.499000549316406 -20.861000061035156,-5.499000549316406 -20.861000061035156,-5.499000549316406 C-20.861000061035156,-17.01218605041504 -11.513185501098633,-26.360000610351562 0,-26.360000610351562 C0,-26.360000610351562 0,-26.360000610351562 0,-26.360000610351562 C11.513185501098633,-26.360000610351562 20.861000061035156,-17.01218605041504 20.861000061035156,-5.499000549316406z"/></g><g opacity="1" transform="matrix(1.141569972038269,0,0,1.141569972038269,-167.71200561523438,117.91699981689453)"><path fill="rgb(28,176,246)" fill-opacity="1" d="M0,-29.134000778198242 C16.079055786132812,-29.134000778198242 29.134000778198242,-16.079055786132812 29.134000778198242,0 C29.134000778198242,16.079055786132812 16.079055786132812,29.134000778198242 0,29.134000778198242 C-16.079055786132812,29.134000778198242 -29.134000778198242,16.079055786132812 -29.134000778198242,0 C-29.134000778198242,-16.079055786132812 -16.079055786132812,-29.134000778198242 0,-29.134000778198242z"/></g><g opacity="1" transform="matrix(1,0,0,1,0,0)"><path fill="rgb(28,176,246)" fill-opacity="1" d="M-135.5,111.75 C-136.5,97.75 -203.125,111.25 -199.625,125.75 C-196.125,140.25 -174.86900329589844,212.60499572753906 -171,225.5 C-168.375,234.25 -157.66299438476562,235.68600463867188 -150.125,234.25 C-142.25,232.75 -133.875,227 -134,214.625 C-134.12600708007812,202.11599731445312 -134.5,125.75 -135.5,111.75z"/></g></g><g transform="matrix(0.4067366421222687,0.9135454297065735,-0.9135454297065735,0.4067366421222687,562.389404296875,793.2908935546875)" opacity="1" style="display:block"><g opacity="1" transform="matrix(1,0,0,1,-147.0590057373047,249.58700561523438)"><path fill="rgb(255,75,75)" fill-opacity="1" d="M8.691499710083008,-7.039999961853027 C8.691499710083008,-7.039999961853027 8.691499710083008,7.039999961853027 8.691499710083008,7.039999961853027 C8.691499710083008,11.836838722229004 4.796838760375977,15.731499671936035 0,15.731499671936035 C0,15.731499671936035 0,15.731499671936035 0,15.731499671936035 C-4.796838760375977,15.731499671936035 -8.691499710083008,11.836838722229004 -8.691499710083008,7.039999961853027 C-8.691499710083008,7.039999961853027 -8.691499710083008,-7.039999961853027 -8.691499710083008,-7.039999961853027 C-8.691499710083008,-11.836838722229004 -4.796838760375977,-15.731499671936035 0,-15.731499671936035 C0,-15.731499671936035 0,-15.731499671936035 0,-15.731499671936035 C4.796838760375977,-15.731499671936035 8.691499710083008,-11.836838722229004 8.691499710083008,-7.039999961853027z"/></g></g><g transform="matrix(0.7431448101997375,0.6691306233406067,-0.6691306233406067,0.7431448101997375,549.3241577148438,681.0087890625)" opacity="1" style="display:block"><g opacity="1" transform="matrix(0.9922670722007751,-0.1241210401058197,0.1241210401058197,0.9922670722007751,-153.71600341796875,220.1999969482422)"><path fill="rgb(76,197,255)" fill-opacity="1" d="M20.861000061035156,-5.499000549316406 C20.861000061035156,-5.499000549316406 20.861000061035156,5.499000549316406 20.861000061035156,5.499000549316406 C20.861000061035156,17.01218605041504 11.513185501098633,26.360000610351562 0,26.360000610351562 C0,26.360000610351562 0,26.360000610351562 0,26.360000610351562 C-11.513185501098633,26.360000610351562 -20.861000061035156,17.01218605041504 -20.861000061035156,5.499000549316406 C-20.861000061035156,5.499000549316406 -20.861000061035156,-5.499000549316406 -20.861000061035156,-5.499000549316406 C-20.861000061035156,-17.01218605041504 -11.513185501098633,-26.360000610351562 0,-26.360000610351562 C0,-26.360000610351562 0,-26.360000610351562 0,-26.360000610351562 C11.513185501098633,-26.360000610351562 20.861000061035156,-17.01218605041504 20.861000061035156,-5.499000549316406z"/></g><g opacity="1" transform="matrix(1.141569972038269,0,0,1.141569972038269,-167.71200561523438,117.91699981689453)"><path fill="rgb(28,176,246)" fill-opacity="1" d="M0,-29.134000778198242 C16.079055786132812,-29.134000778198242 29.134000778198242,-16.079055786132812 29.134000778198242,0 C29.134000778198242,16.079055786132812 16.079055786132812,29.134000778198242 0,29.134000778198242 C-16.079055786132812,29.134000778198242 -29.134000778198242,16.079055786132812 -29.134000778198242,0 C-29.134000778198242,-16.079055786132812 -16.079055786132812,-29.134000778198242 0,-29.134000778198242z"/></g><g opacity="1" transform="matrix(1,0,0,1,0,0)"><path fill="rgb(28,176,246)" fill-opacity="1" d="M-135.5,111.75 C-136.5,97.75 -203.125,111.25 -199.625,125.75 C-196.125,140.25 -174.86900329589844,212.60499572753906 -171,225.5 C-168.375,234.25 -157.66299438476562,235.68600463867188 -150.125,234.25 C-142.25,232.75 -133.875,227 -134,214.625 C-134.12600708007812,202.11599731445312 -134.5,125.75 -135.5,111.75z"/></g></g><g transform="matrix(1,0,0,1,540,540)" opacity="1" style="display:block"><g opacity="1" transform="matrix(0.9762399792671204,0,0,0.9762399792671204,-180.84300231933594,117.06500244140625)"><path fill="rgb(28,176,246)" fill-opacity="1" d="M0,-35.784000396728516 C25.986000061035156,-35.784000396728516 47.051998138427734,-25.986000061035156 47.051998138427734,0 C47.051998138427734,25.986000061035156 25.986000061035156,44.49100112915039 0,44.49100112915039 C-25.986000061035156,44.49100112915039 -47.051998138427734,25.986000061035156 -47.051998138427734,0 C-47.051998138427734,-25.986000061035156 -25.986000061035156,-35.784000396728516 0,-35.784000396728516z"/></g><g opacity="1" transform="matrix(1.0703400373458862,0,0,1.0703400373458862,-184.8000030517578,83.16100311279297)"><path fill="rgb(255,75,75)" fill-opacity="1" d="M4.203999996185303,-8.361000061035156 C25.590999603271484,-8.361000061035156 39.10499954223633,-10.892999649047852 38.72600173950195,0 C37.88600158691406,24.141000747680664 21.38800048828125,38.72600173950195 0,38.72600173950195 C-21.38800048828125,38.72600173950195 -39.07600021362305,28.695999145507812 -39.42599868774414,0.8180000185966492 C-39.5629997253418,-10.07800006866455 -17.18400001525879,-8.361000061035156 4.203999996185303,-8.361000061035156z"/></g><g opacity="1" transform="matrix(1,0,-0.01745506562292576,1,-208.6479949951172,116.01599884033203)"><path fill="rgb(28,176,246)" fill-opacity="1" d="M4.928999900817871,-10.140999794006348 C4.928999900817871,-10.140999794006348 4.928999900817871,10.140999794006348 4.928999900817871,10.140999794006348 C4.928999900817871,10.140999794006348 -4.928999900817871,10.140999794006348 -4.928999900817871,10.140999794006348 C-4.928999900817871,10.140999794006348 -4.928999900817871,-10.140999794006348 -4.928999900817871,-10.140999794006348 C-4.928999900817871,-10.140999794006348 4.928999900817871,-10.140999794006348 4.928999900817871,-10.140999794006348z"/></g><g opacity="1" transform="matrix(1,0,-0.1051042377948761,1,-173.1959991455078,120.01599884033203)"><path fill="rgb(28,176,246)" fill-opacity="1" d="M4.928999900817871,-10.140999794006348 C4.928999900817871,-10.140999794006348 4.928999900817871,10.140999794006348 4.928999900817871,10.140999794006348 C4.928999900817871,10.140999794006348 -4.928999900817871,10.140999794006348 -4.928999900817871,10.140999794006348 C-4.928999900817871,10.140999794006348 -4.928999900817871,-10.140999794006348 -4.928999900817871,-10.140999794006348 C-4.928999900817871,-10.140999794006348 4.928999900817871,-10.140999794006348 4.928999900817871,-10.140999794006348z"/></g></g><g transform="matrix(1,0,0,1,539,536)" opacity="1" style="display:block"><g opacity="1" transform="matrix(0.8981923460960388,-0.1352616250514984,0.12713538110256195,0.8442307710647583,-182.8979949951172,88.56199645996094)"><path fill="rgb(253,176,42)" fill-opacity="1" d="M47.36000061035156,0.32499998807907104 C47.36000061035156,18.308000564575195 26.92799949645996,36.07600021362305 15.170999526977539,35.167999267578125 C15.170999526977539,35.167999267578125 -8.42300033569336,33.40599822998047 -8.42300033569336,33.40599822998047 C-27.819000244140625,30.562000274658203 -53.172000885009766,15.987000465393066 -50.053001403808594,-3.421999931335449 C-47.53499984741211,-19.09000015258789 -34.25600051879883,-33.10200119018555 -15.539999961853027,-32.5620002746582 C-15.539999961853027,-32.5620002746582 15.539999961853027,-32.5620002746582 15.539999961853027,-32.5620002746582 C33.52299880981445,-32.5620002746582 47.36000061035156,-17.658000946044922 47.36000061035156,0.32499998807907104z"/></g><g opacity="1" transform="matrix(1,0,0,1,0,0)"><path fill="rgb(253,176,42)" fill-opacity="1" d="M-156.5,40.25 C-156.5,40.25 -212.5,58.25 -212.5,58.25 C-212.5,58.25 -211.25,71.5 -211.25,71.5 C-211.25,71.5 -155.25,66.25 -155.25,66.25 C-155.25,66.25 -156.5,40.25 -156.5,40.25z"/></g></g><g transform="matrix(0.9998477101325989,-0.017452405765652657,0.017452405765652657,0.9998477101325989,540.0030517578125,536.1238403320312)" opacity="1" style="display:block"><g opacity="1" transform="matrix(0.22342367470264435,-0.9203593730926514,0.9203593730926514,0.22342367470264435,-165.96800231933594,-80.08799743652344)"><path fill="rgb(61,61,61)" fill-opacity="1" d="M39.13199996948242,-18.798500061035156 C39.13199996948242,-18.798500061035156 39.13199996948242,18.798500061035156 39.13199996948242,18.798500061035156 C39.13199996948242,30.94029998779297 29.273799896240234,40.798500061035156 17.131999969482422,40.798500061035156 C17.131999969482422,40.798500061035156 -17.131999969482422,40.798500061035156 -17.131999969482422,40.798500061035156 C-29.273799896240234,40.798500061035156 -39.13199996948242,30.94029998779297 -39.13199996948242,18.798500061035156 C-39.13199996948242,18.798500061035156 -39.13199996948242,-18.798500061035156 -39.13199996948242,-18.798500061035156 C-39.13199996948242,-30.94029998779297 -29.273799896240234,-40.798500061035156 -17.131999969482422,-40.798500061035156 C-17.131999969482422,-40.798500061035156 17.131999969482422,-40.798500061035156 17.131999969482422,-40.798500061035156 C29.273799896240234,-40.798500061035156 39.13199996948242,-30.94029998779297 39.13199996948242,-18.798500061035156z"/></g><g opacity="1" transform="matrix(0.22342367470264435,-0.9203593730926514,0.9203593730926514,0.22342367470264435,-275.4830017089844,-40.00400161743164)"><path fill="rgb(61,61,61)" fill-opacity="1" d="M39.13199996948242,-18.798500061035156 C39.13199996948242,-18.798500061035156 39.13199996948242,18.798500061035156 39.13199996948242,18.798500061035156 C39.13199996948242,30.94029998779297 29.273799896240234,40.798500061035156 17.131999969482422,40.798500061035156 C17.131999969482422,40.798500061035156 -17.131999969482422,40.798500061035156 -17.131999969482422,40.798500061035156 C-29.273799896240234,40.798500061035156 -39.13199996948242,30.94029998779297 -39.13199996948242,18.798500061035156 C-39.13199996948242,18.798500061035156 -39.13199996948242,-18.798500061035156 -39.13199996948242,-18.798500061035156 C-39.13199996948242,-30.94029998779297 -29.273799896240234,-40.798500061035156 -17.131999969482422,-40.798500061035156 C-17.131999969482422,-40.798500061035156 17.131999969482422,-40.798500061035156 17.131999969482422,-40.798500061035156 C29.273799896240234,-40.798500061035156 39.13199996948242,-30.94029998779297 39.13199996948242,-18.798500061035156z"/></g><g opacity="1" transform="matrix(0.8738477826118469,-0.365198016166687,0.365198016166687,0.8738477826118469,-231.5030059814453,-74.82599639892578)"><path fill="rgb(61,61,61)" fill-opacity="1" d="M53.13199996948242,-33.394500732421875 C53.13199996948242,-33.394500732421875 53.13199996948242,33.394500732421875 53.13199996948242,33.394500732421875 C53.13199996948242,45.53630065917969 43.273799896240234,55.394500732421875 31.131999969482422,55.394500732421875 C31.131999969482422,55.394500732421875 -31.131999969482422,55.394500732421875 -31.131999969482422,55.394500732421875 C-43.273799896240234,55.394500732421875 -53.13199996948242,45.53630065917969 -53.13199996948242,33.394500732421875 C-53.13199996948242,33.394500732421875 -53.13199996948242,-33.394500732421875 -53.13199996948242,-33.394500732421875 C-53.13199996948242,-45.53630065917969 -43.273799896240234,-55.394500732421875 -31.131999969482422,-55.394500732421875 C-31.131999969482422,-55.394500732421875 31.131999969482422,-55.394500732421875 31.131999969482422,-55.394500732421875 C43.273799896240234,-55.394500732421875 53.13199996948242,-45.53630065917969 53.13199996948242,-33.394500732421875z"/></g></g><g transform="matrix(0.9998477101325989,-0.017452405765652657,0.017452405765652657,0.9998477101325989,545.8902587890625,536.7711791992188)" opacity="1" style="display:block"><g opacity="1" transform="matrix(1,0,0,1,0,4.125)"><path fill="rgb(160,90,57)" fill-opacity="1" d="M-204.25,-69 C-210.25,-67.25 -205.25,-67.25 -212,-64.75 C-218.75,-62.25 -267.625,39.55400085449219 -264.75,48.875 C-260.625,62.25 -246.5,62.875 -236.5,60.875 C-230.67300415039062,59.709999084472656 -167.25,43 -158.25,39.75 C-149.25,36.5 -127.25,25.5 -130.25,11.5 C-133.25,-2.5 -147.5,-61.75 -150,-70 C-152.5,-78.25 -198.25,-70.75 -204.25,-69z"/></g><g opacity="1" transform="matrix(0.866584300994873,-0.26891574263572693,0.26891574263572693,0.866584300994873,-227.3719940185547,-1.2549999952316284)"><path fill="rgb(176,108,76)" fill-opacity="1" d="M56.89799880981445,-44.66299819946289 C56.89799880981445,-44.66299819946289 56.89799880981445,44.66299819946289 56.89799880981445,44.66299819946289 C56.89799880981445,52.39500045776367 50.630001068115234,58.66299819946289 42.89799880981445,58.66299819946289 C42.89799880981445,58.66299819946289 -42.89799880981445,58.66299819946289 -42.89799880981445,58.66299819946289 C-50.630001068115234,58.66299819946289 -56.89799880981445,52.39500045776367 -56.89799880981445,44.66299819946289 C-56.89799880981445,44.66299819946289 -57.46099853515625,-29.836000442504883 -57.46099853515625,-29.836000442504883 C-57.46099853515625,-37.56800079345703 -24.860000610351562,-59.89799880981445 -17.128000259399414,-59.89799880981445 C-17.128000259399414,-59.89799880981445 42.89799880981445,-58.66299819946289 42.89799880981445,-58.66299819946289 C50.630001068115234,-58.66299819946289 56.89799880981445,-52.39500045776367 56.89799880981445,-44.66299819946289z"/></g><g opacity="1" transform="matrix(1,0,0,1,0,0)"><path fill="rgb(253,176,42)" fill-opacity="1" d="M-152.875,-70.75 C-152.875,-70.75 -220.375,-74.5 -251.375,-55 C-282.375,-35.5 -287.875,-20.75 -287.875,-20.75 C-287.875,-20.75 -278.625,9.125 -278.625,9.125 C-278.625,9.125 -273.25,-8 -266.5,-20.5 C-259.75,-33 -251.625,-43.5 -251.625,-43.5 C-251.625,-43.5 -225.875,-45.75 -203.875,-44.75 C-181.875,-43.75 -142.375,-33.75 -142.375,-33.75 C-142.375,-33.75 -152.875,-70.75 -152.875,-70.75z"/></g><g opacity="1" transform="matrix(0.6376122236251831,-0.7703574895858765,0.7703574895858765,0.6376122236251831,-56.4488525390625,-215.20098876953125)"><path fill="rgb(253,176,42)" fill-opacity="1" d="M-267.375,-79.25 C-267.375,-79.25 -272.13299560546875,-70.15399932861328 -269.375,-60.5 C-265.875,-48.25 -254.875,-46 -254.875,-46 C-254.875,-46 -249.625,-60 -256.375,-69.5 C-263.125,-79 -267.375,-79.25 -267.375,-79.25z"/></g><g opacity="1" transform="matrix(1,0,0,1,0,0)"><path fill="rgb(253,176,42)" fill-opacity="1" d="M-267.375,-79.25 C-267.375,-79.25 -272.13299560546875,-70.15399932861328 -269.375,-60.5 C-265.875,-48.25 -254.875,-46 -254.875,-46 C-254.875,-46 -249.625,-60 -256.375,-69.5 C-263.125,-79 -267.375,-79.25 -267.375,-79.25z"/></g></g><g transform="matrix(-0.14500923454761505,0.06761892139911652,0.06761892139911652,0.14500923454761505,354.0025634765625,427.715576171875)" opacity="1" style="display:block"><g opacity="1" transform="matrix(1,0,0,1,421.677001953125,483.0090026855469)"><path fill="rgb(255,255,255)" fill-opacity="1" d="M-113.47899627685547,-28.364999771118164 C-113.47899627685547,-79.03399658203125 -50.667999267578125,-121.23400115966797 0.0010000000474974513,-121.23400115966797 C50.66999816894531,-121.23400115966797 91.74500274658203,-80.15899658203125 91.74500274658203,-29.489999771118164 C91.74500274658203,-29.489999771118164 91.74500274658203,29.490999221801758 91.74500274658203,29.490999221801758 C91.74500274658203,80.16000366210938 50.66999816894531,121.23400115966797 0.0010000000474974513,121.23400115966797 C-50.667999267578125,121.23400115966797 -113.47899627685547,81.28500366210938 -113.47899627685547,30.615999221801758 C-113.47899627685547,30.615999221801758 -113.47899627685547,-28.364999771118164 -113.47899627685547,-28.364999771118164z"/></g><g opacity="1" transform="matrix(1,0,0,1,642.2780151367188,485.12799072265625)"><path fill="rgb(255,255,255)" fill-opacity="1" d="M-91.74500274658203,-29.489999771118164 C-91.74500274658203,-80.15899658203125 -50.667999267578125,-121.23400115966797 0,-121.23400115966797 C50.66999816894531,-121.23400115966797 91.74500274658203,-80.15899658203125 91.74500274658203,-29.489999771118164 C91.74500274658203,-29.489999771118164 91.74500274658203,29.490999221801758 91.74500274658203,29.490999221801758 C91.74500274658203,80.16000366210938 50.66999816894531,121.23400115966797 0,121.23400115966797 C-50.667999267578125,121.23400115966797 -91.74500274658203,80.16000366210938 -91.74500274658203,29.490999221801758 C-91.74500274658203,29.490999221801758 -91.74500274658203,-29.489999771118164 -91.74500274658203,-29.489999771118164z"/></g><g opacity="1" transform="matrix(1,0,0,1,406.0060119628906,478.43798828125)"><path fill="rgb(61,61,61)" fill-opacity="1" d="M-40.957000732421875,-12.338000297546387 C-22.60099983215332,-12.413999557495117 -7.744999885559082,-27.31800079345703 -7.744999885559082,-45.691001892089844 C-7.744999885559082,-52.22600173950195 -9.62399959564209,-58.32099914550781 -12.871000289916992,-63.46699905395508 C-8.824000358581543,-64.80599975585938 -4.497000217437744,-65.53099822998047 0,-65.53099822998047 C22.621000289916992,-65.53099822998047 40.95800018310547,-47.19300079345703 40.95800018310547,-24.573999404907227 C40.95800018310547,-24.573999404907227 40.95800018310547,24.57200050354004 40.95800018310547,24.57200050354004 C40.95800018310547,47.19499969482422 22.621000289916992,65.53099822998047 0,65.53099822998047 C-22.6200008392334,65.53099822998047 -40.957000732421875,47.19499969482422 -40.957000732421875,24.57200050354004 C-40.957000732421875,24.57200050354004 -40.957000732421875,-12.338000297546387 -40.957000732421875,-12.338000297546387z"/></g><g opacity="1" transform="matrix(1,0,0,1,611.1370239257812,488.18701171875)"><path fill="rgb(61,61,61)" fill-opacity="1" d="M-40.933998107910156,-12.133999824523926 C-22.86199951171875,-12.53499984741211 -8.335000038146973,-27.312000274658203 -8.335000038146973,-45.47999954223633 C-8.335000038146973,-52.42599868774414 -10.458000183105469,-58.875999450683594 -14.090999603271484,-64.21700286865234 C-9.697999954223633,-65.8270034790039 -4.951000213623047,-66.70700073242188 0,-66.70700073242188 C22.60700035095215,-66.70700073242188 40.933998107910156,-48.37900161743164 40.933998107910156,-25.77199935913086 C40.933998107910156,-25.77199935913086 40.933998107910156,25.774999618530273 40.933998107910156,25.774999618530273 C40.933998107910156,48.37900161743164 22.60700035095215,66.70700073242188 0,66.70700073242188 C-22.60700035095215,66.70700073242188 -40.933998107910156,48.37900161743164 -40.933998107910156,25.774999618530273 C-40.933998107910156,25.774999618530273 -40.933998107910156,-12.133999824523926 -40.933998107910156,-12.133999824523926z"/></g><g opacity="1" transform="matrix(1,0,0,1,663.2529907226562,622.9149780273438)"><path fill="rgb(176,108,76)" fill-opacity="1" d="M91.92900085449219,-23.54599952697754 C46.191001892089844,-27.691999435424805 -29.142000198364258,-8.081000328063965 -69.47899627685547,40.678001403808594 C-69.47899627685547,40.678001403808594 -38.887001037597656,67.14800262451172 11.515000343322754,53.97700119018555 C67.10600280761719,39.44900131225586 99.46700286865234,5.21999979019165 91.92900085449219,-23.54599952697754z"/></g><g opacity="1" transform="matrix(1,0,0,1,417.3039855957031,622.9149780273438)"><path fill="rgb(176,108,76)" fill-opacity="1" d="M78.98600006103516,15.246000289916992 C47.09600067138672,-37.86800003051758 -30.63599967956543,-57.53799819946289 -104.38200378417969,-37.86800003051758 C-104.38200378417969,-37.86800003051758 -88.43599700927734,15.246000289916992 -88.43599700927734,15.246000289916992 C-18.01300048828125,29.66900062561035 104.38200378417969,57.53799819946289 78.98600006103516,15.246000289916992z"/></g><g opacity="1" transform="matrix(1,0,0,1,539.9940185546875,617.0189819335938)"><path fill="rgb(134,64,31)" fill-opacity="1" d="M-44.23400115966797,0.004999999888241291 C-44.23400115966797,-17.19300079345703 -30.297000885009766,-31.12700080871582 -13.105999946594238,-31.12700080871582 C-13.105999946594238,-31.12700080871582 13.107000350952148,-31.12700080871582 13.107000350952148,-31.12700080871582 C30.29800033569336,-31.12700080871582 44.23400115966797,-17.19300079345703 44.23400115966797,0.004999999888241291 C44.23400115966797,17.194000244140625 30.29800033569336,31.128000259399414 13.107000350952148,31.128000259399414 C13.107000350952148,31.128000259399414 -13.105999946594238,31.128000259399414 -13.105999946594238,31.128000259399414 C-30.297000885009766,31.128000259399414 -44.23400115966797,17.194000244140625 -44.23400115966797,0.004999999888241291z"/></g><g opacity="1" transform="matrix(1,0,0,1,539.1240234375,595.9749755859375)"><path fill="rgb(134,64,31)" fill-opacity="1" d="M-30.236000061035156,12.60099983215332 C-30.236000061035156,29.301000595092773 -16.697999954223633,42.834999084472656 0,42.834999084472656 C16.698999404907227,42.834999084472656 30.235000610351562,29.301000595092773 30.235000610351562,12.60099983215332 C30.235000610351562,-4.098999977111816 1.2599999904632568,-42.83399963378906 0,-42.83399963378906 C-1.2589999437332153,-42.83399963378906 -30.236000061035156,-4.098999977111816 -30.236000061035156,12.60099983215332z"/></g><g opacity="1" transform="matrix(1,0,0,1,464.6319885253906,671.5089721679688)"><path fill="rgb(136,71,39)" fill-opacity="1" d="M-67.48799896240234,-45.06700134277344 C-60.21699905395508,-49.02399826049805 -51.11899948120117,-46.33000183105469 -47.167999267578125,-39.055999755859375 C-36.518001556396484,-19.457000732421875 -1.312999963760376,12.956000328063965 51.20100021362305,12.956000328063965 C59.47600173950195,12.956000328063965 66.18499755859375,19.66900062561035 66.18499755859375,27.93899917602539 C66.18499755859375,36.21799850463867 59.47600173950195,42.92300033569336 51.20100021362305,42.92300033569336 C-14.133999824523926,42.92300033569336 -58.54600143432617,2.7739999294281006 -73.5009994506836,-24.74799919128418 C-77.4520034790039,-32.02199935913086 -74.75900268554688,-41.11899948120117 -67.48799896240234,-45.06700134277344z"/></g><g opacity="1" transform="matrix(1,0,0,1,540,434.43499755859375)"><path fill="rgb(176,108,76)" fill-opacity="1" d="M-258.9230041503906,54.79899978637695 C-258.9230041503906,-19.586000442504883 -198.62100219726562,-79.88800048828125 -124.23600006103516,-79.88800048828125 C-124.23600006103516,-79.88800048828125 96.31199645996094,-78.63700103759766 96.31199645996094,-78.63700103759766 C170.697998046875,-78.63700103759766 231,-18.334999084472656 231,56.04999923706055 C231,56.04999923706055 231,78.63700103759766 231,78.63700103759766 C231,78.63700103759766 0,78.63700103759766 0,78.63700103759766 C0,78.63700103759766 -258.9230041503906,77.38600158691406 -258.9230041503906,77.38600158691406 C-258.9230041503906,77.38600158691406 -258.9230041503906,54.79899978637695 -258.9230041503906,54.79899978637695z"/></g><g opacity="1" transform="matrix(1,0,0,1,637.468017578125,444.9580078125)"><path fill="rgb(136,71,39)" fill-opacity="1" d="M-48.391998291015625,-0.8899999856948853 C-48.391998291015625,-9.937999725341797 -41.05799865722656,-17.273000717163086 -32.00899887084961,-17.273000717163086 C-32.00899887084961,-17.273000717163086 58.979000091552734,-16.382999420166016 58.979000091552734,-16.382999420166016 C68.0260009765625,-16.382999420166016 75.36199951171875,-9.04800033569336 75.36199951171875,0 C75.36199951171875,9.04800033569336 68.0260009765625,16.382999420166016 58.979000091552734,16.382999420166016 C58.979000091552734,16.382999420166016 -32.00899887084961,15.493000030517578 -32.00899887084961,15.493000030517578 C-41.05799865722656,15.493000030517578 -48.391998291015625,8.157999992370605 -48.391998291015625,-0.8899999856948853z"/></g><g opacity="1" transform="matrix(0.9902680516242981,-0.13917310535907745,0.13917310535907745,0.9902680516242981,416.1549987792969,388.2359924316406)"><path fill="rgb(136,71,39)" fill-opacity="1" d="M-74.58799743652344,-8.12399959564209 C-7.11299991607666,-37.125999450683594 54.678001403808594,-9.871000289916992 77.94400024414062,7.993000030517578 C84.58100128173828,13.08899974822998 85.83000183105469,22.60099983215332 80.73400115966797,29.238000869750977 C75.63800048828125,35.875999450683594 66.1259994506836,37.125999450683594 59.48699951171875,32.029998779296875 C41.986000061035156,18.590999603271484 -8.22599983215332,-3.6619999408721924 -62.62099838256836,19.718000411987305 C-70.30899810791016,23.02199935913086 -79.22100067138672,19.468000411987305 -82.5250015258789,11.779999732971191 C-85.83000183105469,4.091000080108643 -82.2760009765625,-4.820000171661377 -74.58799743652344,-8.12399959564209z"/></g><g opacity="0" transform="matrix(1,0,0,1,0,0)"><path stroke-linecap="round" stroke-linejoin="miter" fill-opacity="0" stroke-miterlimit="4" stroke="rgb(136,71,39)" stroke-opacity="1" stroke-width="30" d="M708.5900268554688,544.0419921875 C708.5900268554688,544.0419921875 673.843994140625,536.614990234375 648.7219848632812,537.958984375 C611.1939697265625,539.9669799804688 586.0239868164062,546.7789916992188 586.0239868164062,546.7789916992188"/></g><g opacity="0" transform="matrix(1,0,0,1,0,0)"><path stroke-linecap="round" stroke-linejoin="miter" fill-opacity="0" stroke-miterlimit="4" stroke="rgb(136,71,39)" stroke-opacity="1" stroke-width="30" d="M482.50799560546875,546.2529907226562 C482.50799560546875,546.2529907226562 447.2380065917969,537.8779907226562 421.2950134277344,539.0549926757812 C383.75201416015625,540.7589721679688 358.0530090332031,544.7000122070312 358.0530090332031,544.7000122070312"/></g></g><g transform="matrix(-0.7431448101997375,0.6691306233406067,-0.6691306233406067,-0.7431448101997375,285.04266357421875,801.2755126953125)" opacity="1" style="display:block"><g opacity="1" transform="matrix(1.471060037612915,0,0,1,-254.04470825195312,81.99299621582031)"><path fill="rgb(176,108,76)" fill-opacity="1" d="M34.834999084472656,0 C34.834999084472656,9.52299976348877 28.298999786376953,19.288999557495117 17.899999618530273,22.530000686645508 C17.899999618530273,22.530000686645508 -13.722000122070312,32.0880012512207 -13.722000122070312,32.0880012512207 C-35.904998779296875,37.69300079345703 -47.28799819946289,17.767000198364258 -47.28799819946289,0.10199999809265137 C-47.28799819946289,-17.562999725341797 -35.27399826049805,-39.18199920654297 -13.722000122070312,-31.882999420166016 C-13.722000122070312,-31.882999420166016 18.930999755859375,-20.179000854492188 18.930999755859375,-20.179000854492188 C28.29199981689453,-16.378999710083008 34.834999084472656,-9.52299976348877 34.834999084472656,0z"/></g></g><g transform="matrix(1,0,0,1,539.9998779296875,540)" opacity="1" style="display:block"><g opacity="1" transform="matrix(1,0,0,1,0,0)"><g opacity="1" transform="matrix(0.48965638875961304,-0.8719154596328735,0.8719154596328735,0.48965638875961304,77.62315368652344,111.21859741210938)"><path fill="rgb(176,108,76)" fill-opacity="1" d="M107.84400177001953,-435.1470031738281 C107.84400177001953,-435.1470031738281 70.33999633789062,-422.0419921875 44.571998596191406,-379.7569885253906 C11.987000465393066,-326.28399658203125 9.454999923706055,-273.51800537109375 9.454999923706055,-273.51800537109375 C9.454999923706055,-273.51800537109375 132.05299377441406,-324.7749938964844 132.05299377441406,-324.7749938964844 C132.05299377441406,-324.7749938964844 107.84400177001953,-435.1470031738281 107.84400177001953,-435.1470031738281z"/></g><g opacity="1" transform="matrix(1,0,0,1,-192.1479949951172,-187.96499633789062)"><path fill="rgb(176,108,76)" fill-opacity="1" d="M0,-56.93050003051758 C31.41994285583496,-56.93050003051758 56.93050003051758,-31.41994285583496 56.93050003051758,0 C56.93050003051758,31.41994285583496 31.41994285583496,56.93050003051758 0,56.93050003051758 C-31.41994285583496,56.93050003051758 -56.93050003051758,31.41994285583496 -56.93050003051758,0 C-56.93050003051758,-31.41994285583496 -31.41994285583496,-56.93050003051758 0,-56.93050003051758z"/></g></g><g opacity="1" transform="matrix(1,0,0,1,0,0)"><g opacity="1" transform="matrix(-0.40539687871932983,0.9141407608985901,-0.9141407608985901,-0.40539687871932983,-50.75396728515625,-266.43548583984375)"><path fill="rgb(176,108,76)" fill-opacity="1" d="M99.125,-430.25 C99.125,-430.25 78.5999984741211,-419.2380065917969 56.67599868774414,-398.864013671875 C24.52400016784668,-368.9849853515625 6.001999855041504,-337.27099609375 6.001999855041504,-337.27099609375 C6.001999855041504,-337.27099609375 129.0050048828125,-321.7820129394531 129.0050048828125,-321.7820129394531 C129.0050048828125,-321.7820129394531 99.125,-430.25 99.125,-430.25z"/></g><g opacity="1" transform="matrix(1,0,0,1,244.68299865722656,2.4030001163482666)"><path fill="rgb(176,108,76)" fill-opacity="1" d="M0,-56.93050003051758 C31.41994285583496,-56.93050003051758 56.93050003051758,-31.41994285583496 56.93050003051758,0 C56.93050003051758,31.41994285583496 31.41994285583496,56.93050003051758 0,56.93050003051758 C-31.41994285583496,56.93050003051758 -56.93050003051758,31.41994285583496 -56.93050003051758,0 C-56.93050003051758,-31.41994285583496 -31.41994285583496,-56.93050003051758 0,-56.93050003051758z"/></g></g><g opacity="1" transform="matrix(1,0,0,1,0,0)"><g opacity="1" transform="matrix(0.6521778106689453,0.7580660581588745,-0.7580660581588745,0.6521778106689453,-89.69091796875,-78.29376220703125)"><path fill="rgb(176,108,76)" fill-opacity="1" d="M99.125,-430.25 C99.125,-430.25 82.7959976196289,-420.6440124511719 45.42100143432617,-385.3940124511719 C13.489999771118164,-355.27899169921875 2.5,-339 2.5,-339 C2.5,-339 132.05299377441406,-324.7749938964844 132.05299377441406,-324.7749938964844 C132.05299377441406,-324.7749938964844 99.125,-430.25 99.125,-430.25z"/></g><g opacity="1" transform="matrix(1,0,0,1,284.70599365234375,-228.98699951171875)"><path fill="rgb(176,108,76)" fill-opacity="1" d="M0,-56.93050003051758 C31.41994285583496,-56.93050003051758 56.93050003051758,-31.41994285583496 56.93050003051758,0 C56.93050003051758,31.41994285583496 31.41994285583496,56.93050003051758 0,56.93050003051758 C-31.41994285583496,56.93050003051758 -56.93050003051758,31.41994285583496 -56.93050003051758,0 C-56.93050003051758,-31.41994285583496 -31.41994285583496,-56.93050003051758 0,-56.93050003051758z"/></g></g><g opacity="1" transform="matrix(1,0,0,1,0,0)"><g opacity="1" transform="matrix(1,0,0,1,131.12399291992188,-383.0690002441406)"><path fill="rgb(176,108,76)" fill-opacity="1" d="M0,-56.93050003051758 C31.41994285583496,-56.93050003051758 56.93050003051758,-31.41994285583496 56.93050003051758,0 C56.93050003051758,31.41994285583496 31.41994285583496,56.93050003051758 0,56.93050003051758 C-31.41994285583496,56.93050003051758 -56.93050003051758,31.41994285583496 -56.93050003051758,0 C-56.93050003051758,-31.41994285583496 -31.41994285583496,-56.93050003051758 0,-56.93050003051758z"/></g><g opacity="1" transform="matrix(1,0,0,1,0,0)"><path fill="rgb(176,108,76)" fill-opacity="1" d="M99.125,-430.25 C99.125,-430.25 77.875,-421.25 40.5,-386 C8.569000244140625,-355.885009765625 2.5,-339 2.5,-339 C2.5,-339 131,-327 131,-327 C131,-327 99.125,-430.25 99.125,-430.25z"/></g></g></g><g clip-path="url(#__lottie_element_21076)" transform="matrix(1.2100000381469727,0,0,1.2100000381469727,-66.400146484375,-240.4000244140625)" opacity="1" style="display:block"><g transform="matrix(1,0,0,1,0,0)" opacity="1" style="display:block"><g opacity="1" transform="matrix(1,0,0,1,540,540)"><path fill="url(#__lottie_element_21092)" fill-opacity="1" d="M-17.59000015258789,-194.75 C-17.59000015258789,-194.75 -41.14899826049805,-175.58999633789062 -41.14899826049805,-175.58999633789062 C-44.23699951171875,-173.08099365234375 -48.233001708984375,-172.00999450683594 -52.154998779296875,-172.63800048828125 C-52.154998779296875,-172.63800048828125 -82.13999938964844,-177.4550018310547 -82.13999938964844,-177.4550018310547 C-95.18199920654297,-179.552001953125 -107.9020004272461,-172.20599365234375 -112.60800170898438,-159.8679962158203 C-112.60800170898438,-159.8679962158203 -123.4280014038086,-131.48599243164062 -123.4280014038086,-131.48599243164062 C-124.84100341796875,-127.7760009765625 -127.77100372314453,-124.84400177001953 -131.48199462890625,-123.43099975585938 C-131.48199462890625,-123.43099975585938 -159.86300659179688,-112.60600280761719 -159.86300659179688,-112.60600280761719 C-172.2010040283203,-107.90599822998047 -179.54600524902344,-95.18599700927734 -177.4499969482422,-82.14399719238281 C-177.4499969482422,-82.14399719238281 -172.63299560546875,-52.159000396728516 -172.63299560546875,-52.159000396728516 C-172.0050048828125,-48.236000061035156 -173.0760040283203,-44.22999954223633 -175.5850067138672,-41.15299987792969 C-175.5850067138672,-41.15299987792969 -194.74600219726562,-17.590999603271484 -194.74600219726562,-17.590999603271484 C-198.8679962158203,-12.529000282287598 -200.94900512695312,-6.380000114440918 -201,-0.2160000056028366 C-201,-0.2160000056028366 -201,0.2160000056028366 -201,0.2160000056028366 C-200.94900512695312,6.380000114440918 -198.8679962158203,12.52400016784668 -194.74600219726562,17.586999893188477 C-194.74600219726562,17.586999893188477 -175.5850067138672,41.152000427246094 -175.5850067138672,41.152000427246094 C-173.0760040283203,44.22999954223633 -172.0050048828125,48.236000061035156 -172.63299560546875,52.15299987792969 C-172.63299560546875,52.15299987792969 -177.4499969482422,82.13800048828125 -177.4499969482422,82.13800048828125 C-179.54600524902344,95.18099975585938 -172.2010040283203,107.89600372314453 -159.86300659179688,112.60600280761719 C-159.86300659179688,112.60600280761719 -131.48199462890625,123.4209976196289 -131.48199462890625,123.4209976196289 C-127.77100372314453,124.84400177001953 -124.84100341796875,127.7760009765625 -123.4280014038086,131.4810028076172 C-123.4280014038086,131.4810028076172 -112.60800170898438,159.86199951171875 -112.60800170898438,159.86199951171875 C-107.9020004272461,172.2010040283203 -95.18199920654297,179.54600524902344 -82.13999938964844,177.4550018310547 C-82.13999938964844,177.4550018310547 -52.154998779296875,172.63299560546875 -52.154998779296875,172.63299560546875 C-48.233001708984375,172.00399780273438 -44.23699951171875,173.08099365234375 -41.14899826049805,175.5850067138672 C-41.14899826049805,175.5850067138672 -17.59000015258789,194.74600219726562 -17.59000015258789,194.74600219726562 C-12.527000427246094,198.8679962158203 -6.376999855041504,200.94900512695312 -0.21899999678134918,201 C-0.21899999678134918,201 0.21899999678134918,201 0.21899999678134918,201 C6.376999855041504,200.94900512695312 12.526000022888184,198.8679962158203 17.59000015258789,194.74600219726562 C17.59000015258789,194.74600219726562 41.14899826049805,175.5850067138672 41.14899826049805,175.5850067138672 C44.22600173950195,173.08099365234375 48.22800064086914,172.00399780273438 52.150001525878906,172.63299560546875 C52.150001525878906,172.63299560546875 82.13999938964844,177.4550018310547 82.13999938964844,177.4550018310547 C95.18099975585938,179.54600524902344 107.89700317382812,172.2010040283203 112.60299682617188,159.86199951171875 C112.60299682617188,159.86199951171875 123.4219970703125,131.4810028076172 123.4219970703125,131.4810028076172 C124.84100341796875,127.7760009765625 127.77100372314453,124.84400177001953 131.48199462890625,123.4209976196289 C131.48199462890625,123.4209976196289 159.86300659179688,112.60600280761719 159.86300659179688,112.60600280761719 C172.1959991455078,107.89600372314453 179.54600524902344,95.18099975585938 177.44500732421875,82.13800048828125 C177.44500732421875,82.13800048828125 172.63400268554688,52.15299987792969 172.63400268554688,52.15299987792969 C172.0050048828125,48.236000061035156 173.0760040283203,44.22999954223633 175.5850067138672,41.152000427246094 C175.5850067138672,41.152000427246094 194.74600219726562,17.586999893188477 194.74600219726562,17.586999893188477 C198.8679962158203,12.52400016784668 200.94900512695312,6.375999927520752 201,0.2160000056028366 C201,0.2160000056028366 201,-0.2160000056028366 201,-0.2160000056028366 C200.94900512695312,-6.375999927520752 198.8679962158203,-12.529000282287598 194.74600219726562,-17.590999603271484 C194.74600219726562,-17.590999603271484 175.5850067138672,-41.15299987792969 175.5850067138672,-41.15299987792969 C173.0760040283203,-44.22999954223633 172.0050048828125,-48.236000061035156 172.63400268554688,-52.159000396728516 C172.63400268554688,-52.159000396728516 177.44500732421875,-82.14399719238281 177.44500732421875,-82.14399719238281 C179.54600524902344,-95.18599700927734 172.1959991455078,-107.90599822998047 159.86300659179688,-112.60600280761719 C159.86300659179688,-112.60600280761719 131.48199462890625,-123.43099975585938 131.48199462890625,-123.43099975585938 C127.77100372314453,-124.84400177001953 124.84100341796875,-127.7760009765625 123.4219970703125,-131.48599243164062 C123.4219970703125,-131.48599243164062 112.60299682617188,-159.8679962158203 112.60299682617188,-159.8679962158203 C107.89700317382812,-172.20599365234375 95.18099975585938,-179.552001953125 82.13999938964844,-177.4550018310547 C82.13999938964844,-177.4550018310547 52.150001525878906,-172.63800048828125 52.150001525878906,-172.63800048828125 C48.22800064086914,-172.00999450683594 44.22600173950195,-173.08099365234375 41.14899826049805,-175.58999633789062 C41.14899826049805,-175.58999633789062 17.59000015258789,-194.75 17.59000015258789,-194.75 C12.465999603271484,-198.91900634765625 6.23199987411499,-201 -0.003000000026077032,-201 C-6.23199987411499,-201 -12.465999603271484,-198.91900634765625 -17.59000015258789,-194.75z"/></g></g><g mask="url(#__lottie_element_21082_1)" style="display:none"><g mask="url(#__lottie_element_21087)"><g><path/></g></g></g><g transform="matrix(1,0,0,1,0,0)" opacity="1" style="display:block"><g opacity="1" transform="matrix(1,0,0,1,477.0119934082031,561.030029296875)"><path fill="rgb(255,255,255)" fill-opacity="1" d="M-55.26599884033203,-1.190000057220459 C-55.26599884033203,-1.190000057220459 49.224998474121094,-41.2859992980957 49.224998474121094,-41.2859992980957 C54.82600021362305,-43.43600082397461 60.89500045776367,-39.492000579833984 61.2130012512207,-33.5 C62.73699951171875,-4.706999778747559 45.35300064086914,22.25 17.746999740600586,32.84299850463867 C-9.859999656677246,43.43600082397461 -40.82099914550781,35.03099822998047 -58.96200180053711,12.61400032043457 C-62.73699951171875,7.949999809265137 -60.86600112915039,0.9589999914169312 -55.26599884033203,-1.190000057220459z"/></g><g opacity="1" transform="matrix(1,0,0,1,580.7570190429688,484.1830139160156)"><path fill="rgb(255,255,255)" fill-opacity="1" d="M24.12700080871582,-52.57699966430664 C24.12700080871582,-52.57699966430664 -49.28799819946289,31.89699935913086 -49.28799819946289,31.89699935913086 C-53.222999572753906,36.42599868774414 -51.595001220703125,43.479000091552734 -46.071998596191406,45.82600021362305 C-19.53700065612793,57.10599899291992 11.739999771118164,49.99100112915039 31.13599967956543,27.672000885009766 C50.53200149536133,5.354000091552734 53.222999572753906,-26.615999221801758 38.36399841308594,-51.33000183105469 C35.270999908447266,-56.472999572753906 28.062999725341797,-57.10499954223633 24.12700080871582,-52.57699966430664z"/></g><g opacity="1" transform="matrix(1,0,0,1,649.4340209960938,562.5659790039062)"><path fill="rgb(255,255,255)" fill-opacity="1" d="M4.59499979019165,-21.99799919128418 C-2.1459999084472656,-23.454999923706055 -8.791999816894531,-19.172000885009766 -10.25,-12.430999755859375 C-10.255999565124512,-12.402999877929688 -10.26200008392334,-12.37399959564209 -10.267999649047852,-12.345999717712402 C-10.267999649047852,-12.345999717712402 -14.315999984741211,7.03000020980835 -14.315999984741211,7.03000020980835 C-15.73799991607666,13.842000007629395 -11.397000312805176,20.527000427246094 -4.59499979019165,21.996999740600586 C2.1459999084472656,23.454999923706055 8.791999816894531,19.172000885009766 10.24899959564209,12.430999755859375 C10.255000114440918,12.402000427246094 10.26200008392334,12.37399959564209 10.267000198364258,12.345000267028809 C10.267000198364258,12.345000267028809 14.3149995803833,-7.03000020980835 14.3149995803833,-7.03000020980835 C15.73799991607666,-13.843000411987305 11.397000312805176,-20.527000427246094 4.59499979019165,-21.99799919128418z"/></g><g opacity="1" transform="matrix(1,0,0,1,530.697998046875,522.8569946289062)"><path fill="rgb(255,255,255)" fill-opacity="1" d="M-75.90499877929688,-41.979000091552734 C-55.26100158691406,-46.37699890136719 -41.99100112915039,-50.641998291015625 -36.09400177001953,-54.770999908447266 C-30.235000610351562,-58.87300109863281 -21.832000732421875,-69.71900177001953 -10.883999824523926,-87.30699920654297 C-3.563999891281128,-99.06900024414062 11.904000282287598,-102.66799926757812 23.666000366210938,-95.3479995727539 C26.53700065612793,-93.55999755859375 29.01799964904785,-91.21099853515625 30.95800018310547,-88.44000244140625 C30.95800018310547,-88.44000244140625 75.56099700927734,-24.739999771118164 75.56099700927734,-24.739999771118164 C99.16999816894531,8.97700023651123 90.9749984741211,55.44900131225586 57.25899887084961,79.05799865722656 C23.541000366210938,102.66799926757812 -22.930999755859375,94.4729995727539 -46.540000915527344,60.75600051879883 C-46.540000915527344,60.75600051879883 -91.2239990234375,-3.059000015258789 -91.2239990234375,-3.059000015258789 C-99.16999816894531,-14.406999588012695 -96.41200256347656,-30.047000885009766 -85.06400299072266,-37.99399948120117 C-82.30899810791016,-39.922000885009766 -79.19400024414062,-41.277000427246094 -75.90499877929688,-41.979000091552734z"/></g><g opacity="1" transform="matrix(1,0,0,1,529.427001953125,646.593994140625)"><path fill="rgb(255,255,255)" fill-opacity="1" d="M-22.243000030517578,-3.2060000896453857 C-21.30699920654297,-10.038000106811523 -15.008999824523926,-14.819000244140625 -8.175999641418457,-13.883000373840332 C-8.147000312805176,-13.878999710083008 -8.118000030517578,-13.875 -8.08899974822998,-13.871000289916992 C-8.08899974822998,-13.871000289916992 11.501999855041504,-11.04699993133545 11.501999855041504,-11.04699993133545 C18.391000747680664,-10.055000305175781 23.187000274658203,-3.688999891281128 22.243000030517578,3.2049999237060547 C21.305999755859375,10.038999557495117 15.008999824523926,14.819000244140625 8.175999641418457,13.883000373840332 C8.147000312805176,13.878999710083008 8.118000030517578,13.875 8.08899974822998,13.871000289916992 C8.08899974822998,13.871000289916992 -11.501999855041504,11.04800033569336 -11.501999855041504,11.04800033569336 C-18.391000747680664,10.053999900817871 -23.187000274658203,3.688999891281128 -22.243000030517578,-3.2060000896453857z"/></g></g></g><g transform="matrix(1,0,0,1,539.9998779296875,540)" opacity="1" style="display:block"><g opacity="1" transform="matrix(1,0,0,1,0,0)"><g opacity="1" transform="matrix(1,0,0,1,131.12399291992188,-383.0690002441406)"><path fill="rgb(176,108,76)" fill-opacity="1" d="M0,-56.93050003051758 C31.41994285583496,-56.93050003051758 56.93050003051758,-31.41994285583496 56.93050003051758,0 C56.93050003051758,31.41994285583496 31.41994285583496,56.93050003051758 0,56.93050003051758 C-31.41994285583496,56.93050003051758 -56.93050003051758,31.41994285583496 -56.93050003051758,0 C-56.93050003051758,-31.41994285583496 -31.41994285583496,-56.93050003051758 0,-56.93050003051758z"/></g><g opacity="1" transform="matrix(1,0,0,1,0,0)"><path fill="rgb(176,108,76)" fill-opacity="1" d="M99.125,-430.25 C99.125,-430.25 61.90999984741211,-409.0090026855469 51.801998138427734,-395.2070007324219 C52.310001373291016,-385.6839904785156 67.55500030517578,-367.67401123046875 90.83799743652344,-343.906005859375 C111.16200256347656,-323.1579895019531 131,-327 131,-327 C131,-327 99.125,-430.25 99.125,-430.25z"/></g></g></g><g transform="matrix(1,0,0,1,540,540)" opacity="1" style="display:block"/></g></svg>